<?xml version="1.0" standalone="no"?>
<!DOCTYPE svg PUBLIC "-//W3C//DTD SVG 1.1//EN" "http://www.w3.org/Graphics/SVG/1.1/DTD/svg11.dtd" >
<svg xmlns="http://www.w3.org/2000/svg" xmlns:xlink="http://www.w3.org/1999/xlink" version="1.1">
<metadata>
Created by FontForge 20170924 at Fri May 19 18:08:53 2017
 By www-data
Typeface (c)WOODCUTTER MANERO MMXVI All Rights Reserved
</metadata>
<defs>
<font id="PixelIconsCompilation" horiz-adv-x="1014" >
  <font-face 
    font-family="Pixel Icons Compilation"
    font-weight="400"
    font-stretch="normal"
    units-per-em="2048"
    panose-1="2 0 5 0 0 0 0 0 0 0"
    ascent="1638"
    descent="-410"
    x-height="1432"
    cap-height="1436"
    bbox="20 -5 2875 1440"
    underline-thickness="150"
    underline-position="-292"
    unicode-range="U+0020-F002"
  />
<missing-glyph horiz-adv-x="1024" 
d="M100 0v1434h824v-1434h-824zM150 50h724v1334h-724v-1334zM325 1148q31 28 58 43q53 30 112 30q92 0 148 -47.5t56 -127.5q0 -49 -23 -98.5t-87 -129.5q-63 -80 -99 -132t-36 -99q0 -38 24 -133h-32q-35 97 -35 148q0 76 81.5 218t81.5 217q0 57 -33 90t-91 33
q-38 0 -69 -17q-26 -15 -56 -40v45zM389 334l57 58q11 10 20 10q10 0 22 -11l56 -60q9 -11 9 -20q0 -11 -10 -22l-56 -62q-14 -14 -21 -14q-11 0 -20 10l-61 71q-7 9 -7 18q0 10 11 22z" />
    <glyph glyph-name=".notdef" horiz-adv-x="1024" 
d="M100 0v1434h824v-1434h-824zM150 50h724v1334h-724v-1334zM325 1148q31 28 58 43q53 30 112 30q92 0 148 -47.5t56 -127.5q0 -49 -23 -98.5t-87 -129.5q-63 -80 -99 -132t-36 -99q0 -38 24 -133h-32q-35 97 -35 148q0 76 81.5 218t81.5 217q0 57 -33 90t-91 33
q-38 0 -69 -17q-26 -15 -56 -40v45zM389 334l57 58q11 10 20 10q10 0 22 -11l56 -60q9 -11 9 -20q0 -11 -10 -22l-56 -62q-14 -14 -21 -14q-11 0 -20 10l-61 71q-7 9 -7 18q0 10 11 22z" />
    <glyph glyph-name=".null" horiz-adv-x="0" 
 />
    <glyph glyph-name="nonmarkingreturn" horiz-adv-x="508" 
 />
    <glyph glyph-name="space" unicode=" " horiz-adv-x="508" 
 />
    <glyph glyph-name="space" unicode="&#xa0;" horiz-adv-x="508" 
 />
    <glyph glyph-name="exclam" unicode="!" horiz-adv-x="2923" 
d="M98 1440h441l12 -6l-6 -11v-321q0 -11 -11 -11h-327l-6 -29v-166l6 -29l-11 -5h-98q-11 0 -11 11v555q2 12 11 12zM671 1440h326q12 -2 12 -12v-97q0 -11 -12 -11h-103v-338h103q12 -2 12 -12v-97q0 -11 -12 -11h-326q-12 0 -12 11v97q2 12 12 12h103v338h-103
q-12 0 -12 11v97q2 12 12 12zM1129 1440h97q12 -2 12 -12v-103h103q11 -1 11 -11v-103h109v103q2 11 11 11h103v103q2 12 12 12h97q12 -2 12 -12v-97q0 -11 -12 -11h-103v-103q0 -12 -11 -12h-103v-109h103q11 -1 11 -11v-103h103q12 -2 12 -12v-97q0 -11 -12 -11h-97
q-12 0 -12 11v103h-103q-11 0 -11 12v103h-109v-103q0 -12 -11 -12h-103v-103q0 -11 -12 -11h-97q-12 0 -12 11v97q2 12 12 12h103v103q2 11 11 11h103v109h-103q-11 0 -11 12v103h-103q-12 0 -12 11v97q2 12 12 12zM1816 1440h441q11 -2 11 -12v-97q0 -11 -11 -11h-332
v-109h217q12 -2 12 -12v-97q0 -11 -12 -11h-217v-109h332q11 -2 11 -12v-97q0 -11 -11 -11h-441q-12 0 -12 11v555q2 12 12 12zM2388 1440h98q11 -2 11 -12v-446h223v103q2 11 12 11h97q12 -1 12 -11v-212q0 -11 -12 -11h-441q-11 0 -11 11v555q2 12 11 12zM213 1314l-6 -29
v-11l6 -57h212v97h-212zM121 726h23q12 -2 12 -15v-30q0 -15 -12 -15h-23q-11 0 -11 15v30q2 15 11 15zM1799 726h23q11 -2 11 -15v-30q0 -15 -11 -15h-23q-12 0 -12 15v30q2 15 12 15zM2469 726h22q12 -2 12 -15v-30q0 -15 -12 -15h-22q-12 0 -12 15v30q2 15 12 15z
M1919 696h69q11 -2 11 -15v-203h29q11 -2 11 -15q0 -15 -11 -15h-109q-12 0 -12 15q2 15 12 15h34v188h-34q-12 0 -12 15q2 15 12 15zM2280 696h23q11 -2 11 -15v-38h51q12 -2 12 -15q0 -15 -12 -15h-51v-135h51q12 -2 12 -15q0 -15 -12 -15h-62l-35 37v128q-23 0 -23 15
t23 15v38q2 15 12 15zM76 643h68q12 -2 12 -15v-150h28q12 -2 12 -15q0 -15 -12 -15h-108q-12 0 -12 15q2 15 12 15h34v135h-34q-12 0 -12 15q2 15 12 15zM333 643q22 -37 34 -37v-8q0 -15 -11 -15h-23q-11 0 -11 30h-40v-135h40q0 30 11 30h23q11 -2 11 -15v-8l-34 -37h-63
l-34 37v113q28 29 28 45h69zM499 643q22 -37 35 -37v-121l-35 -37h-63l-34 37v113q28 29 28 45h69zM579 643h86q22 -37 35 -37v-143q0 -15 -12 -15h-23q-11 0 -11 15v150h-40v-150q0 -15 -12 -15h-23q-11 0 -11 15v165q2 15 11 15zM854 643q12 -2 12 -15q0 -15 -12 -15h-74
v-52h51q22 -38 35 -38v-38l-35 -37h-86q-11 0 -11 15q2 15 11 15h75v53h-52l-34 37v30q29 29 29 45h91zM1169 643q22 -37 34 -37v-8q0 -15 -11 -15h-23q-11 0 -11 30h-41v-135h41q0 30 11 30h23q11 -2 11 -15v-8l-34 -37h-63l-34 37v113q28 29 28 45h69zM1335 643
q22 -37 34 -37v-121l-34 -37h-63l-34 37v113q28 29 28 45h69zM1415 643h109q22 -37 34 -37v-143q0 -15 -11 -15h-23q-12 0 -12 15v150h-17v-128q0 -15 -11 -15h-6q-11 0 -11 15v128h-17v-150q0 -15 -12 -15h-23q-11 0 -11 15v165q1 15 11 15zM1587 643h86q22 -37 34 -37
v-121l-34 -37h-40v-150h74q12 -3 12 -15v-16q0 -15 -12 -15h-74v-172h74q12 -3 12 -15v-8q0 -15 -12 -15h-91q-20 35 -41 38v172q-28 0 -28 15v16q0 15 28 15v330q2 15 12 15zM1753 643h69q11 -2 11 -15v-150h29q11 -2 11 -15q0 -15 -11 -15h-109q-12 0 -12 15q2 15 12 15
h34v135h-34q-12 0 -12 15q2 15 12 15zM2108 643h63q22 -37 34 -37v-143q0 -15 -11 -15h-86l-34 37v31q28 29 28 45h57v52h-51q-12 0 -12 15q2 15 12 15zM2423 643h68q12 -2 12 -15v-150h29q11 -2 11 -15q0 -15 -11 -15h-109q-12 0 -12 15q2 15 12 15h34v135h-34
q-12 0 -12 15q2 15 12 15zM2675 643q22 -37 34 -37v-121l-34 -37h-63l-35 37v113q29 29 29 45h69zM2755 643h86q22 -37 34 -37v-143q0 -15 -11 -15h-23q-12 0 -12 15v150h-40v-150q0 -15 -11 -15h-23q-12 0 -12 15v165q2 15 12 15zM448 613v-135h40v135h-40zM1283 613v-135
h41v135h-41zM1621 613v-135h40v135h-40zM2623 613v-135h40v135h-40zM2119 531v-53h40v53h-40zM797 365h40q11 -2 11 -15v-293q0 -15 -11 -15h-120q-20 35 -40 38v165q28 20 28 30q0 23 12 23h68v52q2 15 12 15zM1369 365h35q11 -2 11 -15v-52h75q11 -3 11 -15v-16
q0 -15 -11 -15h-75v-172h75q11 -3 11 -15v-8q0 -15 -11 -15h-92q-20 35 -40 38v172q-29 0 -29 15v16q0 15 29 15v52q2 15 11 15zM35 298h41q11 -3 11 -15v-166h23v128q2 15 11 15h6q11 -2 11 -15v-128h23v166q2 15 12 15h34q12 -3 12 -15v-158q0 -15 -23 -15v-53
q0 -15 -12 -15h-40q-11 0 -11 15v53h-23v-53q0 -15 -12 -15h-34q-11 0 -11 15v53q-29 0 -29 15v158q2 15 11 15zM282 298h91q15 -38 23 -38q17 0 17 -15v-158q-28 -20 -28 -30q0 -15 -12 -15h-91q-20 35 -40 38v165q28 20 28 30q0 23 12 23zM499 298h92q15 -38 23 -38
q17 0 17 -15v-158q-29 -20 -29 -30q0 -15 -11 -15h-92q-19 35 -40 38v165q29 20 29 30q0 23 11 23zM934 298h92q15 -38 23 -38q17 0 17 -15v-15q0 -15 -12 -15h-40q-11 0 -11 37h-46v-172h46q0 37 11 37h40q12 -2 12 -15v-15q-29 -20 -29 -30q0 -15 -11 -15h-92
q-19 35 -40 38v165q29 20 29 30q0 23 11 23zM1123 298h40q12 -3 12 -15v-203h46v203q1 15 11 15h40q11 -3 11 -15v-226q0 -15 -11 -15h-120q-20 35 -40 38v203q2 15 11 15zM1804 298h92q15 -38 23 -38q17 0 17 -15v-83q0 -15 -11 -15h-98v-67h69q11 -3 11 -15v-8
q0 -15 -11 -15h-92q-19 35 -40 38v165q29 20 29 30q0 23 11 23zM1993 298h40q12 -3 12 -15v-61h23q0 45 23 45q0 31 11 31h40q12 -3 12 -15v-53q0 -15 -12 -15h-74q0 -30 -23 -30v-128q0 -15 -12 -15h-40q-11 0 -11 15v226q2 15 11 15zM2463 298h91q15 -38 23 -38
q17 0 17 -15v-83q0 -15 -11 -15h-97v-67h68q12 -3 12 -15v-8q0 -15 -12 -15h-91q-20 35 -40 38v165q28 20 28 30q0 23 12 23zM2680 298h121q11 -3 11 -15v-16q0 -15 -11 -15h-98v-67h69q20 -35 40 -38v-60q-29 -20 -29 -30q0 -15 -11 -15h-120q-12 0 -12 15v8q2 15 12 15h97
v67h-69q-15 38 -23 38q-17 0 -17 15v45q29 20 29 30q0 23 11 23zM305 252v-172h45v172h-45zM522 252v-172h46v172h-46zM740 252v-172h45v172h-45zM1827 252v-67h46v67h-46zM2486 252v-67h46v67h-46zM2274 117h63q11 -2 11 -15v-45q0 -15 -11 -15h-63q-12 0 -12 15v45
q2 15 12 15z" />
    <glyph glyph-name="quotedbl" unicode="&#x22;" horiz-adv-x="1545" 
d="M531 1431h774q29 -4 29 -29v-143h157v-1230q0 -29 -28 -29h-902q-28 0 -28 29v128h-129q-29 0 -29 29v601h-318l3 172l315 1l-1 299h159zM1331 787h-784v-472h114q21 0 43 -43v-115h601q29 0 29 29v429zM1050 647l2 -190h-190l-1 188z" />
    <glyph glyph-name="numbersign" unicode="#" horiz-adv-x="1689" 
d="M421 1433h293q33 -5 33 -33v-504h537v146q5 33 32 33h147v146q5 33 33 33h114q32 -5 32 -33v-341l-358 -1v-521h146q33 -5 33 -32v-293q0 -33 -33 -33h-325v163l-720 -3l1 -160h-356v326q5 32 33 32h146v179h147q32 -5 32 -32v-147h538v147q5 32 32 32h147v147
q0 33 -33 33h-863v-180h-146q-33 0 -33 33v472q5 33 33 33h146v146q5 33 33 33h146v146q5 33 33 33z" />
    <glyph glyph-name="dollar" unicode="$" horiz-adv-x="1558" 
 />
    <glyph glyph-name="percent" unicode="%" horiz-adv-x="1610" 
 />
    <glyph glyph-name="ampersand" unicode="&#x26;" horiz-adv-x="1683" 
 />
    <glyph glyph-name="quotesingle" unicode="'" horiz-adv-x="346" 
 />
    <glyph glyph-name="parenleft" unicode="(" horiz-adv-x="758" 
 />
    <glyph glyph-name="parenright" unicode=")" horiz-adv-x="758" 
 />
    <glyph glyph-name="asterisk" unicode="*" horiz-adv-x="1024" 
 />
    <glyph glyph-name="plus" unicode="+" 
 />
    <glyph glyph-name="comma" unicode="," horiz-adv-x="557" 
 />
    <glyph glyph-name="hyphen" unicode="-" horiz-adv-x="670" 
 />
    <glyph glyph-name="hyphen" unicode="&#xad;" horiz-adv-x="670" 
 />
    <glyph glyph-name="period" unicode="." horiz-adv-x="557" 
 />
    <glyph glyph-name="slash" unicode="/" horiz-adv-x="569" 
 />
    <glyph glyph-name="zero" unicode="0" horiz-adv-x="1517" 
d="M866 1432h587q29 -4 29 -29v-1374q0 -29 -29 -29h-114q-29 0 -29 29v129h-143v-129q0 -29 -29 -29h-114q-29 0 -29 29v129h-143v-129q0 -29 -29 -29h-114q-29 0 -29 29v129h-143v-129q0 -29 -29 -29h-114q-29 0 -29 29v129h-143v-129q0 -29 -29 -29h-114q-29 0 -29 29
v587q4 28 29 28h129v129q4 29 28 29h602v143h-129q-29 0 -29 29v114q5 29 29 29h129v286q4 29 28 29zM1009 1274v-157h129q29 -5 29 -29v-114q0 -29 -29 -29h-129v-129q0 -28 -28 -28h-129v-129q0 -29 -29 -29h-622l21 14l-1 -157h1103l1 788zM852 1107v-148h150l-1 147z
" />
    <glyph glyph-name="one" unicode="1" horiz-adv-x="1536" 
d="M239 1436h1058q29 -5 29 -29v-131h131q29 -4 29 -29v-1058q0 -29 -29 -29h-131v-131q0 -29 -29 -29h-1058q-29 0 -29 29v131h-131q-29 0 -29 29v1058q5 29 29 29h131v131q4 29 29 29zM369 1276v-159h-159v-160h159v-159h-159v-160h159v-159h-159v-160h159v-159h160v159
h159v-159h160v159h159v-159h160v159h159v160h-159v159h159v160h-159v159h159v160h-159v159h-160v-159h-159v159h-160v-159h-159v159h-160zM369 1117h160v-160h-160v160zM688 1117h160v-160h-160v160zM1007 1117h160v-160h-160v160zM529 957h159v-159h-159v159zM848 957h159
v-159h-159v159zM369 798h160v-160h-160v160zM688 798h160v-160h-160v160zM1007 798h160v-160h-160v160zM529 638h159v-159h-159v159zM848 638h159v-159h-159v159zM369 479h160v-160h-160v160zM688 479h160v-160h-160v160zM1007 479h160v-160h-160v160z" />
    <glyph glyph-name="two" unicode="2" horiz-adv-x="1547" 
d="M249 1436h101q29 -5 29 -29v-290h798v290q4 29 29 29h146l-1 -160l145 1v-1088q0 -29 -29 -29h-131v-131q0 -29 -29 -29h-1058q-29 0 -29 29v131h-131q-29 0 -29 29v1058q5 29 29 29h131v131q4 29 29 29zM220 957v-159h159v159h-159zM1177 957v-159h159v159h-159z
M698 798v-131q0 -29 -29 -29h-130v-159h478v159h-130q-29 0 -29 29v131h-160z" />
    <glyph glyph-name="three" unicode="3" horiz-adv-x="1547" 
d="M874 1431h101q29 -5 29 -29v-101q0 -29 -29 -29h-130v130q5 29 29 29zM715 1272h116q29 -5 29 -29v-101l-2 -29h477l2 -159h130q29 -5 29 -29v-578q0 -29 -29 -29h-130v-130q0 -29 -29 -29h-130v-130q0 -29 -29 -29h-752q-29 0 -29 29v130h-130q-29 0 -29 29v130h-130
v636h130v130q5 29 29 29h448v130q5 29 29 29zM368 925v-101q5 -29 29 -29h130v159h-130q-29 -5 -29 -29zM209 795v-159h160l-1 29v130h-159z" />
    <glyph glyph-name="four" unicode="4" horiz-adv-x="1555" 
d="M863 1433v-164h310v-162h133q29 -5 29 -30v-133h163v-147q0 -30 -30 -30h-133v-768h-1122v768h-163v177h163v163h162v162h310v164h178zM390 767v-620h133v458q4 29 29 29h444q29 -4 29 -29v-429l-15 -29h148v620h-768zM700 294v-147h148v147h-148z" />
    <glyph glyph-name="five" unicode="5" horiz-adv-x="1550" 
d="M248 1431h419q29 -5 29 -29v-130h130q29 -5 29 -29v-130h130q29 -5 29 -29v-130h289q29 -5 29 -29v-130h130q29 -5 29 -29v-737q0 -29 -29 -29h-101q-29 0 -29 29v130h-159v-130q0 -29 -29 -29h-101q-29 0 -29 29v130h-159v-130q0 -29 -29 -29h-101q-29 0 -29 29v130
h-159v-130q0 -29 -29 -29h-101q-29 0 -29 29v766h-159v-607q0 -29 -29 -29h-101q-29 0 -29 29v737q5 29 29 29h130v448q5 29 29 29zM378 1272v-159h159v159h-159zM696 954v-159h-159v-159h159v159h159v159h-159z" />
    <glyph glyph-name="six" unicode="6" horiz-adv-x="1545" 
d="M89 1431h578q29 -5 29 -29v-289h795v-1084q0 -29 -29 -29h-1373q-29 0 -29 29v1373q5 29 29 29zM219 954v-159h1113v159h-1113z" />
    <glyph glyph-name="seven" unicode="7" horiz-adv-x="1558" 
d="M417 1433h261q29 -5 29 -29v-101q0 -29 -29 -29h-290v130q5 29 29 29zM895 1433h261q29 -5 29 -29v-130h-290q-29 0 -29 29v101q5 29 29 29zM99 1274h289v-159h290q29 -5 29 -29v-102q0 -29 -29 -29h-449v-318h159v130q5 29 29 29h739q29 -4 29 -29v-130h159v318h-449
q-29 0 -29 29v102q5 29 29 29h290v159h289q29 -5 29 -29v-738q0 -29 -29 -29h-289v-174h159v-275q0 -29 -29 -29h-101q-29 0 -29 29v130h-797v-130q0 -29 -29 -29h-101q-29 0 -29 29v260l159 4v185h-289q-29 0 -29 29v738q5 29 29 29zM548 637v-159h159v159h-159zM866 637
v-159h159v159h-159z" />
    <glyph glyph-name="eight" unicode="8" horiz-adv-x="1252" 
d="M417 1433h420q29 -5 29 -29v-130h-478v130q5 29 29 29zM258 1274h130v-130q0 -29 -29 -29h-130v130q5 29 29 29zM866 1274h130q29 -5 29 -29v-130h-130q-29 0 -29 29v130zM99 1115h130v-637h-130q-29 0 -29 29v579q5 29 29 29zM1025 1115h131q29 -5 29 -29v-579
q0 -29 -29 -29h-131v637zM577 955h101q29 -4 29 -29v-130h-159v130q4 29 29 29zM417 796h131v-318h159v318h130q29 -4 29 -29v-289h159v-131q0 -29 -29 -29h-130v-289q0 -29 -29 -29h-420q-29 0 -29 29v289h-130q-29 0 -29 29v131h159v289q5 29 29 29z" />
    <glyph glyph-name="nine" unicode="9" horiz-adv-x="1558" 
d="M79 1436h261q29 -5 29 -29v-131h-159v-159h-131q-29 0 -29 29v261q5 29 29 29zM558 1436h420q29 -5 29 -29v-131h-478v131q4 29 29 29zM1196 1436h261q29 -5 29 -29v-304l-160 -1v-145h-159v160h159v159h-159v131q4 29 29 29zM369 1276h160v-159h-160v159zM1007 1276h160
v-159h-160v159zM210 1117h159v-160h-159v160zM529 1117h478v-160h-478v160zM52 957h158v-476l159 -2v478h160v-478h-131q-29 -5 -29 -29v-131h-159l-5 120h-155zM1007 957h160v-478h-131q-29 -5 -29 -29v-131h-478v160h478v478zM1326 957h131q29 -4 29 -29v-465l-160 1v-145
h-159v160h159v478zM717 798h102q29 -5 29 -29v-102q0 -29 -29 -29h-102q-29 0 -29 29v102q5 29 29 29zM79 319h131v-159h159v-160h-290q-29 0 -29 29v261q5 29 29 29zM369 319h160v-159h-160v159zM1007 319h160v-159h-131q-29 -5 -29 -29v-131h-449q-29 0 -29 29v131h478
v159zM1326 319h131q29 -4 29 -29v-261q0 -29 -29 -29h-261q-29 0 -29 29v131h159v159z" />
    <glyph glyph-name="colon" unicode=":" horiz-adv-x="557" 
 />
    <glyph glyph-name="semicolon" unicode=";" horiz-adv-x="557" 
 />
    <glyph glyph-name="semicolon" unicode="&#x37e;" horiz-adv-x="557" 
 />
    <glyph glyph-name="less" unicode="&#x3c;" 
 />
    <glyph glyph-name="equal" unicode="=" 
 />
    <glyph glyph-name="greater" unicode="&#x3e;" 
 />
    <glyph glyph-name="question" unicode="?" horiz-adv-x="748" 
 />
    <glyph glyph-name="at" unicode="@" horiz-adv-x="2019" 
 />
    <glyph glyph-name="A" unicode="A" horiz-adv-x="1540" 
d="M227 1433h1064q29 -5 29 -30v-118h133q30 -4 30 -29v-754q0 -29 -30 -29h-133v-133q0 -30 -29 -30h-118v-280q0 -30 -30 -30h-118q-30 0 -30 30v133h-147v-133q0 -30 -30 -30h-103q-30 0 -30 30v133h-133q-29 -5 -29 -30v-133h-133q-30 0 -30 30v280h-133q-29 0 -29 30
v133h-118q-30 0 -30 29v754q5 29 30 29h118v118q4 30 29 30zM375 1108v-620h148v620h-148zM1010 1108v-620h148v620h-148zM685 635v-147h163v73l-15 74h-148z" />
    <glyph glyph-name="B" unicode="B" horiz-adv-x="1727" 
d="M274 1431h477q33 -5 33 -33v-148h164v148q5 33 33 33h477q33 -5 33 -33v-148h148q33 -5 33 -33v-477q0 -33 -33 -33h-148v-148q0 -33 -33 -33h-148v-148q0 -33 -33 -33h-131v-131q0 -33 -33 -33h-148v-148q0 -33 -33 -33h-115q-33 0 -33 33v148h-148q-33 0 -33 33v131
h-148q-33 0 -33 33v148h-148q-33 0 -33 33v148h-148q-33 0 -33 33v477q5 33 33 33h148v148q5 33 33 33z" />
    <glyph glyph-name="C" unicode="C" horiz-adv-x="1507" 
d="M541 1431h415q28 -4 28 -29v-272q0 -28 -28 -28h-129v-143h286q29 -5 29 -29v-114q0 -29 -29 -29h-286v-615h315v143h-129q-29 0 -29 28v115q5 29 29 29h129v128q4 29 28 29h101q28 -5 28 -29v-128h129q29 -5 29 -29v-115q0 -28 -29 -28h-129v-129q0 -29 -28 -29h-129
v-128q0 -29 -29 -29h-257q-29 0 -29 29v128h-157v-128q0 -29 -29 -29h-258q-28 0 -28 29v128h-129q-29 0 -29 29v129h-128q-29 0 -29 28v115q4 29 29 29h128v128q5 29 29 29h100q29 -5 29 -29v-128h129q28 -5 28 -29v-115q0 -28 -28 -28h-129v-143h315v615h-287
q-28 0 -28 29v114q4 29 28 29h287v143h-129q-29 0 -29 28v272q5 29 29 29z" />
    <glyph glyph-name="D" unicode="D" horiz-adv-x="909" 
d="M394 1433h115q28 -4 28 -29v-100l1 -29h128q29 -4 29 -28v-129h129q28 -5 28 -29v-745q0 -29 -28 -29h-287v-143h129q29 -5 29 -29v-114q0 -29 -29 -29h-430q-28 0 -28 29v114q4 29 28 29h129v143h-286q-29 0 -29 29v745q4 29 29 29h129v129q4 28 28 28h129v129
q5 29 29 29zM380 1103v-129q0 -28 -29 -28h-129v-144h129q29 -4 29 -28v-115q0 -28 -29 -28h-129v-144h459v459h-129q-29 0 -29 28v129h-143z" />
    <glyph glyph-name="E" unicode="E" horiz-adv-x="1561" 
d="M99 1433h114q29 -4 29 -29v-129h616v129q5 29 29 29h129v-301l-43 -14h-258v-316h602q28 -4 28 -28v-127l129 -2q29 -5 29 -29v-587q0 -29 -29 -29h-43h-71q-29 0 -29 29v286h-143v-286q0 -29 -29 -29h-57h-43h-15q-28 0 -28 29v286h-144v-286q0 -29 -28 -29h-29h-43h-43
q-28 0 -28 29v286h-158v-315h-129q-29 0 -29 29v773h-129q-28 0 -28 29v100q4 29 28 29h129v158h-315v286q4 29 29 29z" />
    <glyph glyph-name="F" unicode="F" horiz-adv-x="1944" 
d="M895 1433h147q37 -6 37 -37v-367h588v165q5 37 36 37h147q37 -6 37 -37v-1157q0 -37 -37 -37h-147q-36 0 -36 37v165h-184v-165q0 -37 -37 -37h-147q-36 0 -36 37v165h-184v-165q0 -37 -37 -37h-147q-37 0 -37 37v165h-183v-165q0 -37 -37 -37h-147q-37 0 -37 37v367
h-367q-37 0 -37 37v551q6 37 37 37h367v165q6 37 37 37h367v165q6 37 37 37zM473 1010v-183h183v183h-183z" />
    <glyph glyph-name="G" unicode="G" horiz-adv-x="1539" 
d="M714 1431h103q30 -5 30 -30v-265q0 -30 -30 -30h-103q-30 0 -30 30v265q5 30 30 30zM227 1269h118q30 -5 30 -30v-103q0 -30 -30 -30h-118q-29 0 -29 30v103q4 30 29 30zM1186 1269h103q30 -5 30 -30v-103q0 -30 -30 -30h-103q-30 0 -30 30v103q5 30 30 30zM552 959h427
q30 -5 30 -30v-427q0 -30 -30 -30h-427q-30 0 -30 30v427q5 30 30 30zM80 797h265q30 -5 30 -30v-103q0 -30 -30 -30h-295v133q5 30 30 30zM1186 797h265q30 -5 30 -30v-103q0 -30 -30 -30h-265q-30 0 -30 30v103q5 30 30 30zM227 325h118q30 -5 30 -30v-118q0 -29 -30 -29
h-118q-29 0 -29 29v118q4 30 29 30zM714 325h103q30 -5 30 -30v-265q0 -30 -30 -30h-103q-30 0 -30 30v265q5 30 30 30zM1186 325h103q30 -5 30 -30v-118q0 -29 -30 -29h-103q-30 0 -30 29v118q5 30 30 30z" />
    <glyph glyph-name="H" unicode="H" horiz-adv-x="1579" 
d="M567 1433h439q29 -5 29 -29v-117h278q29 -5 29 -29v-293h132q29 -4 29 -29v-293l-167 -2l-8 149h-147v-161l-156 1l-5 160h-146v-761q0 -29 -29 -29h-278q-29 0 -29 29v117q4 29 29 29h132v615h-146v-117q0 -30 -30 -30h-131v147h-147v-132l-14 -29h-146l-15 29v278
q5 29 29 29h132v293q4 29 29 29h278v117q4 29 29 29z" />
    <glyph glyph-name="I" unicode="I" horiz-adv-x="1223" 
d="M240 1436h733q29 -5 29 -29v-146l-161 -1v-293h132q29 -4 29 -29v-132h132q30 -5 30 -29v-587q0 -29 -30 -29h-132l1 -161l-792 -3v164h-132q-29 0 -29 29v587q5 29 29 29h132v132q5 29 29 29h118v308h-118q-29 0 -29 29v103q5 29 29 29zM534 1275v-454q0 -30 -30 -30
h-132v-146h-132q-29 -5 -29 -30v-131h762q29 0 29 29v102q0 30 -29 30h-132v146h-132q-29 0 -29 30v454h-146zM372 322v-146h147v146h-147z" />
    <glyph glyph-name="J" unicode="J" horiz-adv-x="1550" 
d="M879 1433h278q29 -5 29 -29v-263q0 -30 -29 -30h-132v-146h293v132q4 29 29 29h117q29 -5 29 -29v-439q0 -29 -29 -29h-132v-146h-307v-147h117q21 0 44 -44v-248q0 -21 -44 -44h-44h-219q-29 0 -29 29v132h-132q-29 0 -29 29v132h-117q-29 0 -29 29v132h-454
q-29 0 -29 29v263q5 29 29 29h132v132q4 29 29 29h293v132q4 29 29 29h117v132q4 29 29 29h132v117q4 29 29 29zM235 790v-147l147 -1v148h-147zM514 790v-147l147 -1v148h-147zM774 790v-147l147 -1v148h-147z" />
    <glyph glyph-name="K" unicode="K" horiz-adv-x="1561" 
d="M717 1431h438q29 -5 29 -29v-132h117q29 -4 29 -29v-599h132q29 -4 29 -29v-452h-161v-132q0 -29 -29 -29h-1051q-29 0 -29 29v132h-44q-33 0 -75 3.5t-42 25.5v423q5 29 29 29h292v175l145 1l1 117h-292v-146h-146q-29 0 -29 29v423q5 29 29 29h117q29 -4 29 -29v-131
h278l14 146l29 14h132v132q4 29 29 29zM702 1095v-292h466l2 292h-468zM863 467v-146h117q29 0 29 29v117h-146zM458 467v-146h117q29 0 29 29v117h-146zM654 280v-146h117q29 0 29 29v117h-146zM1091 292v-146h117q29 0 29 29v117h-146zM278 279v-146h117q29 0 29 29v117
h-146z" />
    <glyph glyph-name="L" unicode="L" horiz-adv-x="1550" 
d="M250 1431h1094q-14 0 1 -190h146v-891q0 -29 -29 -29h-132v-146h44h60h42l15 -29v-117q0 -29 -29 -29h-263q-29 0 -29 29v292h-146v-292q0 -29 -29 -29h-117q-29 0 -29 29v292h-147v-292q0 -29 -29 -29h-102q-29 0 -29 29v263q0 29 -29 29h-117v-248h-15l15 -29v-15
q0 -29 -29 -29h-278q-29 0 -29 29v117q5 29 29 29h59h27h46v146h-132q-29 0 -29 29v30v744v132l29 14h132v132q4 29 29 29zM235 632v-150h146v146h-73zM1170 628v-146h160v146h-160z" />
    <glyph glyph-name="M" unicode="M" horiz-adv-x="1555" 
d="M580 1428h114q29 -4 29 -29v-128h142v128q5 29 29 29h114q29 -4 29 -29v-285h171v157h271q29 -5 29 -29v-128h-157v-172l-314 -2v-140h442q29 -5 29 -29v-128h-129h-342v-157h285q29 -5 29 -29v-129h128q29 -4 29 -28v-100q0 -29 -29 -29h-285v86v57h-157v-143h-129v-168
l-157 -3q-43 14 -43 86v43l-4 44l-53 -2h-100v157h-143v-157h-328v129q4 28 29 28h285v129q5 29 29 29h128v157h-471v128q4 29 29 29h442v157l-314 4v153h-128q-29 0 -29 28v100q4 29 29 29h271q28 -5 28 -29v-128h143v285q5 29 29 29z" />
    <glyph glyph-name="N" unicode="N" horiz-adv-x="1554" 
d="M571 1431h114q29 -4 29 -29v-143h515h100v143q5 29 29 29h114q29 -4 29 -29v-586q0 -29 -29 -29h-128v-129q0 -28 -29 -28h-129v-601q0 -29 -28 -29h-115q-29 0 -29 29v286h-143v-286q0 -29 -28 -29h-115q-28 0 -28 29l4 286h-147v-286q0 -29 -29 -29h-115q-28 0 -28 29
v286h-143v-286q0 -29 -29 -29h-114q-29 0 -29 29v915l172 -1v-156h300v615q5 29 29 29zM871 1102v-158h163l-5 158h-158zM1186 1102v-158h43l100 5v153h-143z" />
    <glyph glyph-name="O" unicode="O" horiz-adv-x="1400" 
d="M920 730h117q26 -4 26 -26v-118h118q26 -4 26 -26v-117h117q26 -4 26 -26v-104q0 -26 -26 -26h-117v-118q0 -26 -26 -26h-118v-117q0 -26 -26 -26h-91q-26 0 -26 26v261h-834q-26 0 -26 26v104q4 26 26 26h834v287zM489 701h-117q-26 4 -26 26v118h-117q-26 4 -26 26v117
l-117 1q-26 4 -26 26v104q0 26 27 26h117v117q0 26 26 26l118 -1v118q0 26 26 26l91 -1q26 0 26 -26l-1 -260l834 -3q26 0 26 -26v-104q-4 -26 -26 -26l-834 2z" />
    <glyph glyph-name="P" unicode="P" horiz-adv-x="1539" 
d="M89 1431h1359q29 -4 29 -29v-930h-315v-443q0 -29 -29 -29h-1044q-29 0 -29 29v1373q4 29 29 29zM217 1259v-615h169l3 -157h143v128q5 29 29 29h100q29 -5 29 -29v-128h157v128q5 29 29 29h128v-129q5 -28 29 -28h129v128q4 29 28 29h129v615h-1102zM403 1116h101
q28 -4 28 -28v-129h158v129q4 28 28 28h129v-172h-157v-128q0 -29 -29 -29h-100q-29 0 -29 29v128h-129q-28 0 -28 29v115q4 28 28 28zM1033 1116h100q29 -4 29 -28v-272q0 -29 -29 -29h-100q-29 0 -29 29v272q5 28 29 28zM217 472v-300h158v300h-158zM532 472v-300h158v300
h-158zM847 472v-300h157v300h-157z" />
    <glyph glyph-name="Q" unicode="Q" horiz-adv-x="1534" 
d="M552 1433h429q29 -4 29 -29v-129h129q29 -4 29 -28v-129h129q28 -5 28 -29v-287h129q29 -4 29 -28v-115q0 -28 -29 -28h-129v-445q0 -28 -28 -28h-129v-129q0 -29 -29 -29h-745q-29 0 -29 29v129h-129q-28 0 -28 28v445h-129q-29 0 -29 28v115q4 28 29 28h129v287
q4 29 28 29h129v129q5 28 29 28h129v129q4 29 29 29zM695 946v-144h143v144h-143zM380 631v-459h773v459h-773zM552 487h114q29 -4 29 -28v-115q0 -29 -29 -29h-114q-29 0 -29 29v115q4 28 29 28zM867 487h114q29 -4 29 -28v-115q0 -29 -29 -29h-114q-29 0 -29 29v115
q5 28 29 28z" />
    <glyph glyph-name="R" unicode="R" horiz-adv-x="1958" 
d="M887 1436h977q37 -6 37 -37v-1362q0 -37 -37 -37h-147q-37 0 -37 37v773h-184v-166q0 -36 -37 -36h-166v-166q0 -37 -36 -37h-166v-166q0 -36 -37 -36h-166v-166q0 -37 -36 -37h-755q-37 0 -37 37v386v185l37 18h368v166q6 36 37 36h166v166q5 37 36 37h184z" />
    <glyph glyph-name="S" unicode="S" horiz-adv-x="1520" 
d="M79 1436h416q29 -4 29 -29v-588q0 -29 -29 -29h-129v-761q0 -29 -29 -29h-100q-29 0 -29 29v761h-129q-29 0 -29 29v588q4 29 29 29zM711 1436h129v-474h158v445q4 29 28 29h101q29 -4 29 -29v-445h158v445q4 29 28 29h130v-617q0 -29 -29 -29h-287v-761q0 -29 -29 -29
h-101q-28 0 -28 29v761h-287q-29 0 -29 29v588q4 29 29 29z" />
    <glyph glyph-name="T" unicode="T" horiz-adv-x="1542" 
d="M867 1433h114q29 -4 29 -29v-114q0 -29 -29 -29h-114q-29 0 -29 29v114q5 29 29 29zM236 1275h115q29 -4 29 -28v-115q0 -29 -29 -29h-115q-28 0 -28 29v115q4 28 28 28zM552 1118h272q28 -5 28 -29v-287h287q29 -4 29 -28v-129h129q28 -5 28 -29v-286h129q29 -5 29 -29
v-272q0 -29 -29 -29q-1404 9 -1404 -5v306q4 29 29 29h129v286q4 29 28 29h129v286q5 29 29 29h129v129q4 29 29 29zM1182 1118h115q28 -5 28 -29v-115q0 -28 -28 -28h-115q-29 0 -29 28v115q5 29 29 29zM809 788h-272v-143h301v157zM695 315v-143h458v143h-458z" />
    <glyph glyph-name="U" unicode="U" horiz-adv-x="1501" 
d="M788 1433q30 -5 30 -30v-133h605q30 -4 30 -29v-103q0 -30 -30 -30h-605v-148h133q29 -4 29 -29v-296h281l44 163h118q30 -5 30 -30v-266q0 -29 -30 -29h-295v-163h-148v-147h281q29 -5 29 -30v-133h-1093q-29 0 -29 30v103q4 30 29 30h133v147h-133q-29 0 -29 30v428
q4 30 29 30h133v133q5 29 30 29h295v148h-635v162h611l-1 163h158zM655 1270v-146l148 -1v147h-148zM493 768v-133h-148v-133h310v266q0 30 -29 30h-104q-29 -5 -29 -30zM493 310v-147h310v147h-310z" />
    <glyph glyph-name="V" unicode="V" horiz-adv-x="1547" 
d="M239 1433h1071q29 -5 29 -29v-130h130q29 -5 29 -29v-1057q0 -29 -29 -29h-130v-130q0 -29 -29 -29h-130v130q0 29 -29 29h-768v-159h-154l-5 145h-159l-5 1100q-5 29 19 29h131v130q4 29 29 29zM224 1115v-637h796l-4 637h-792zM1180 1115v-160h144v160h-144zM1180 796
v-159h144v159h-144zM1180 478v-160h144v160h-144z" />
    <glyph glyph-name="W" unicode="W" horiz-adv-x="1542" 
d="M562 1433h444v-158h143q29 -4 29 -28v-445h143v129q5 29 29 29h142l1 -172v-129q0 -28 -29 -28h-133l4 -29v-100q0 -29 -28 -29h-129v-129q0 -29 -29 -29h-143v-315h-129q-29 0 -29 29v286h-157v-315h-129q-29 0 -29 29v286h-129q-29 0 -29 29v287h-286q-29 0 -29 28v115
q4 28 29 28h286v144h-286q-29 0 -29 28v115q4 29 29 29h286v129q5 28 29 28h129v129q4 29 29 29zM533 1103v-57v-86h158v143h-158zM705 631v-58v-86h301v144h-301z" />
    <glyph glyph-name="X" unicode="X" horiz-adv-x="1539" 
d="M552 1433h114q29 -4 29 -29v-129h143v129q5 29 29 29h114q29 -4 29 -29v-114q0 -29 -29 -29h-143l14 -29v-272h144v129q4 29 28 29h129v129q5 28 29 28l134 -1l1 -171h-164v-157h-143v-154q252 -4 301 -4v143q5 29 29 29h86h60l-3 -43v-72v-28q0 -29 -29 -29h-129
l-4 -151q-10 -6 162 -1v-34v-43v-57q0 -29 -29 -29h-114q-29 0 -29 29v129h-301v-144h129q29 -4 29 -28v-129h129q28 -5 28 -29v-115q0 -28 -28 -28h-115q-29 0 -29 28v129h-129q-28 0 -28 29v129h-144v-301h129q29 -5 29 -29v-114q0 -29 -29 -29h-114q-29 0 -29 29v129
h-143v-129q0 -29 -29 -29h-114q-29 0 -29 29v114q4 29 29 29h129v301h-144v-129q0 -29 -28 -29h-129v-129q0 -28 -29 -28h-115q-28 0 -28 28v115q4 29 28 29h101l28 -15v144q5 28 29 28h129v144h-301v-58v-71q0 -29 -29 -29h-114q-29 0 -29 29v114q4 29 29 29h129v143h-129
q-29 0 -29 29v114q4 29 29 29h114q29 -4 29 -29v-129h301v144h-129q-29 0 -29 28v129h-129q-28 0 -28 29v115q4 28 28 28h115q29 -4 29 -28v-129h129q28 -5 28 -29v-129h144v301h-129q-29 0 -29 29v114q4 29 29 29zM695 788v-143h143v143h-143z" />
    <glyph glyph-name="Y" unicode="Y" horiz-adv-x="1537" 
d="M89 1431h114q29 -4 29 -29v-601h143v601q4 29 28 29h745q28 -4 28 -29v-601h143v601q5 29 29 29h114q29 -4 29 -29v-744q0 -28 -29 -28h-243l-43 -15v-443h143v286q5 29 29 29h114q29 -5 29 -29v-429q0 -29 -29 -29h-400q-58 0 -58 172v458h-100l-43 -5v-596
q0 -29 -28 -29l-143 1v543v57l4 29h-147v-597q0 -29 -43 -29h-196h-234l-14 29v425q4 29 29 29h114q29 -5 29 -29v-286h147q-4 236 -4 357v101h-286q-29 0 -29 28v744q4 29 29 29zM547 1259v-143h157v143h-157zM861 1259v-143h143v143h-143z" />
    <glyph glyph-name="Z" unicode="Z" horiz-adv-x="1531" 
d="M1158 1431l8 -172l143 -1v-128q0 -28 158 -12v-818l-158 1v-144h-157v158h-129q-29 0 -29 28v129h-472v129q5 29 29 29h443v-143l158 -5v-173l71 6h58q28 0 28 28v759h-129q-28 0 -28 28v129h-787v-129q0 -28 -29 -28h-129v-759l15 -28h114q29 0 29 28v129h157v-129
q0 -28 -28 -28h-129v-129q4 -29 28 -29h759v-128q0 -29 -29 -29h-730q-28 0 -28 29v128h-129q-29 0 -29 29v129h-128q-29 0 -29 28v759h129q28 0 28 28v129h129q29 0 16 172h806zM1152 930v-114q0 -29 -29 -29h-100q-29 0 -29 29v128h43zM365 944h129q28 -4 28 -28v-100
q0 -29 -28 -29h-101q-28 0 -28 29v128z" />
    <glyph glyph-name="bracketleft" unicode="[" horiz-adv-x="758" 
 />
    <glyph glyph-name="backslash" unicode="\" horiz-adv-x="569" 
 />
    <glyph glyph-name="bracketright" unicode="]" horiz-adv-x="758" 
 />
    <glyph glyph-name="asciicircum" unicode="^" 
 />
    <glyph glyph-name="underscore" unicode="_" horiz-adv-x="1024" 
 />
    <glyph glyph-name="grave" unicode="`" horiz-adv-x="1024" 
 />
    <glyph glyph-name="a" unicode="a" horiz-adv-x="1738" 
d="M619 1431h130q33 -5 33 -33v-81v-32v-33h683q32 -5 32 -32v-147h179v-195v-162h-179v-147q0 -32 -32 -32h-147v-504q0 -33 -32 -33h-130q-33 0 -33 33v146h-162v-146q0 -33 -33 -33h-130q-32 0 -32 33v146h-163v-179h-163q-32 0 -32 33v146h-163v-146q0 -33 -32 -33h-130
q-33 0 -33 33v471q5 33 33 33h146v146q5 33 32 33h326v373l179 1v162h-147q-32 0 -32 33v113q5 33 32 33zM1514 1431h146v-179h-179v146q5 33 33 33zM782 1073v-179h130q32 0 32 33v146h-162zM1318 1073v-179h163v179h-163z" />
    <glyph glyph-name="b" unicode="b" horiz-adv-x="1531" 
d="M79 1431h1037q29 -5 29 -29v-132h292q29 -4 29 -29v-891q0 -29 -29 -29h-292v-160h-146v-132q0 -29 -29 -29h-745q-29 0 -29 29v132h-146v1241q5 29 29 29zM1145 1081v-570q5 -29 29 -29h132v628h-132q-29 -5 -29 -29zM371 949v-307h117q29 -4 29 -29v-131h161v131
q4 29 29 29h117v307h-146v-131q0 -29 -29 -29h-103q-29 0 -29 29v131h-146z" />
    <glyph glyph-name="c" unicode="c" horiz-adv-x="1531" 
d="M382 1433h921q29 -5 29 -29v-117q0 -29 -29 -29h-132v-132q0 -29 -29 -29h-336h-103v-147h162l-1 -160h117q29 0 29 29v131h161v-29v-131h161v-147h117q29 -4 29 -29v-117q0 -29 -29 -29h-117v-278q0 -29 -29 -29h-132v-132q0 -29 -29 -29h-892q-29 0 -29 29v103
q4 29 29 29h117v146l29 15h454v146h-132q-29 0 -29 29v132h-146v-132q0 -29 -30 -29h-117l-29 15v146h-117q-29 0 -29 29v132h-132q-29 0 -29 29v102q5 29 29 29h132v322h161v161zM703 790v-147h147v147h-147z" />
    <glyph glyph-name="d" unicode="d" horiz-adv-x="1920" 
d="M858 1433h239l-1 -161h190q48 -4 48 -29v-760h214q47 -5 47 -30v-278h214q48 -4 48 -29v-117q0 -29 -48 -29h-428q-47 0 -47 29v293h-214l-48 -5l1 -317h-215q-47 0 -47 29v293h-238v-293q0 -29 -47 -29h-428q-48 0 -48 29v117q7 29 48 29h214v278q7 30 47 30h190v760
q8 29 48 29h214v132q7 29 47 29zM835 1111v-161h237v161h-237zM835 790v-147h237v147h-237z" />
    <glyph glyph-name="e" unicode="e" horiz-adv-x="1571" 
d="M562 1431h914q30 -5 30 -30v-1224q0 -29 -30 -29h-295v-148h-324v148h-310v-148h-295q-30 0 -30 30v118h-132q-30 0 -30 29v590q5 30 30 30h132v280q5 29 30 29h280v295q5 30 30 30zM709 1269v-767h620v767h-620zM385 944v-147h147v147h-147z" />
    <glyph glyph-name="f" unicode="f" horiz-adv-x="1242" 
d="M252 1431h737q30 -5 30 -30v-132h133q29 -5 29 -30v-575l-189 -1l-1 -197l-282 6v-310h118q30 -4 30 -29v-103q0 -30 -30 -30h-413q-29 0 -29 30v103q4 29 29 29h118v310h-280q-30 0 -30 30v132h-132q-30 0 -30 30v605h162v132q5 30 30 30zM385 1269v-163h-133
q-30 -4 -30 -29v-118h163v147h147v163h-147z" />
    <glyph glyph-name="g" unicode="g" horiz-adv-x="1555" 
d="M356 1431h781q29 -5 29 -30v-118l163 -1v-161h132q30 -4 30 -29v-753q0 -29 -30 -29h-132v-161l-163 -1v-148h-132q-30 0 -30 30v132h-442q-30 -4 -30 -29v-133h-133q-29 0 -29 30v132h-133q-29 0 -29 30v118h-148v782q5 29 30 29h118v148h147zM385 1106v-132
q0 -30 -30 -30h-133v-472h74l89 1v-148h781v163l163 -1v457h-133q-30 0 -30 30v132h-781zM562 959h103q29 -5 29 -30v-132h472v-163h-485l-1 163h-148v132q5 30 30 30z" />
    <glyph glyph-name="h" unicode="h" horiz-adv-x="1432" 
d="M1030 1433h102q29 -5 29 -29v-293h161v-131q0 -30 -29 -30h-132v-467h223l-2 -483h-1303q-29 0 -29 29v117q5 29 29 29h293v147h292l1 161h335v467h-131q-29 0 -29 30v102q4 29 29 29h131v293q5 29 30 29z" />
    <glyph glyph-name="i" unicode="i" horiz-adv-x="1561" 
d="M727 1431h745q29 -5 29 -29v-1373q0 -29 -29 -29h-1373q-29 0 -29 29v1052q5 29 29 29h132v131q4 29 29 29h263q29 -4 29 -29v-131h146v292q4 29 29 29zM873 1259v-149h278q29 -5 29 -29v-760h146v935z" />
    <glyph glyph-name="j" unicode="j" horiz-adv-x="1250" 
d="M70 1431h1066q21 0 44 -44v-1197q0 -29 -29 -29h-132v-132q0 -29 -29 -29h-758l-1 146l-161 -2v1287zM231 1256v-457l29 4h745v453h-774zM231 628v-146h146v146h-146zM537 628v-146h161v146h-161zM859 628v-146h146v146h-146zM391 453v-132h146v-160h161v160h146
q0 45 4 147q2 14 -74 11.5t-76 0.5v-159h-161v132q0 29 -29 29h-88q-29 -5 -29 -29zM231 321v-160h146v160h-146zM859 321v-146h146v146h-146z" />
    <glyph glyph-name="k" unicode="k" horiz-adv-x="1515" 
d="M492 1431h177v-148h280q30 -4 30 -29v-295h147v133q5 29 30 29h133v133q4 29 29 29h133v-324h-148v-472h148l1 -325h-134q-29 0 -29 30v133h-163v147h-147v-163l-163 1l1 -133l162 1v-148q0 -30 -30 -30h-103q-29 0 -29 30v132h-472v133q0 30 -30 30h-133v147h-132
q-30 0 -30 30v590q5 29 30 29h132v133q5 29 30 29h280v148zM182 929v-103q5 -29 30 -29h103q30 0 30 29v103q0 30 -30 30h-103q-30 -5 -30 -30z" />
    <glyph glyph-name="l" unicode="l" horiz-adv-x="1585" 
d="M886 1431h266q29 -5 29 -30v-265q0 -30 -29 -30h-118v-147h309v147h163v-487l-193 1l1 -148h-280v-147h118q29 -5 29 -30v-265q0 -30 -29 -30h-295v148h-118q-30 0 -30 29v133h-133q-29 0 -29 29v133h-457q-30 0 -30 30v265q5 30 30 30h132v132q5 30 30 30h295l1 147h175
l1 163h133v132q4 30 29 30zM237 797v-163h148v163h-148zM871 797v-163h148v163h-148zM551 797v-163h148v163h-148z" />
    <glyph glyph-name="m" unicode="m" horiz-adv-x="1569" 
d="M260 1433h263q30 -5 30 -29v-117q0 -29 -30 -29h-263q-29 0 -29 29v117q4 29 29 29zM1050 1433h263q29 -5 29 -29v-117q0 -29 -29 -29h-263q-30 0 -30 29v117q5 29 30 29zM260 1111h263q30 -4 30 -29v-132h-308v-204l-1 -103h118q30 -4 30 -29v-263q0 -29 -30 -29h-117
v-147h308v775h131q29 -4 29 -29v-731q0 -29 -29 -29h-131v-132q0 -29 -30 -29h-263q-29 0 -29 29v132h-132q-29 0 -29 29v731q5 29 29 29h132v132q4 29 29 29zM1050 1111h263q29 -4 29 -29v-132h132q29 -4 29 -29v-731q0 -29 -29 -29h-132v-132q0 -29 -29 -29h-263
q-30 0 -30 29v132h-131q-29 0 -29 29v731q4 29 29 29h131v-307h132q29 -4 29 -29v-263q0 -29 -29 -29h-132v-147h308v775h-308v132q5 29 30 29z" />
    <glyph glyph-name="n" unicode="n" horiz-adv-x="1547" 
d="M100 1433h103q30 -5 30 -30v-133h132l-1 -162l194 -1v-147h118q29 -4 29 -29v-133h133q30 -5 30 -30v-133h133q29 -4 29 -29v-104q0 -29 -29 -29h-296v-158l163 -5v-280q0 -30 -30 -30h-103q-30 0 -30 30v118h-118q-21 0 -44 44v118h-148v-133q0 -29 -30 -29h-132v-118
q0 -30 -30 -30h-133v1403q5 30 30 30zM1031 1433h132q30 -5 30 -30v-103q0 -30 -30 -30h-133v-132q0 -30 -29 -30h-104q-29 0 -29 30v146l162 1zM1208 798h265q30 -5 30 -30v-103q0 -30 -30 -30h-265q-30 0 -30 30v103q5 30 30 30zM1031 325h132q30 -5 30 -30v-132h133
q29 -5 29 -30v-133h-147q-30 0 -30 30v118h-118q-30 0 -30 29v104z" />
    <glyph glyph-name="o" unicode="o" horiz-adv-x="1528" 
d="M227 1433h1064q29 -5 29 -30v-133h133q30 -4 30 -29v-266q0 -30 -30 -30h-265q-30 0 -30 30v133h-783v-133q0 -30 -30 -30h-265q-30 0 -30 30v266q5 29 30 29h118v133q4 30 29 30zM552 960h429q29 -4 29 -29v-133h133q30 -5 30 -30v-133h118q29 -4 29 -29v-443h133
q30 -5 30 -30v-103q0 -30 -30 -30h-1373q-30 0 -30 30v103q5 30 30 30h118v443q4 29 29 29h133v133q5 30 30 30h133v133q4 29 29 29zM685 635v-133q5 -29 30 -29h137v162h-167zM523 473v-148h162v148h-162zM848 473v-148h147v148h-147zM685 310v-147h163v147h-163z" />
    <glyph glyph-name="p" unicode="p" horiz-adv-x="1540" 
d="M724 1432h104q29 -5 29 -30v-265q0 -30 -29 -30h-104q-29 0 -29 30v265q4 30 29 30zM237 1270h118q30 -5 30 -30v-103q0 -30 -30 -30h-118q-29 0 -29 30v103q4 30 29 30zM1197 1270h103q30 -5 30 -30v-103q0 -30 -30 -30h-103q-30 0 -30 30v103q5 30 30 30zM562 960h428
q30 -5 30 -30v-428q0 -30 -30 -30h-428q-30 0 -30 30v428q5 30 30 30zM90 797h265q30 -4 30 -29v-104q0 -29 -30 -29h-295v133q5 29 30 29zM1197 797h265q30 -4 30 -29v-104q0 -29 -30 -29h-265q-30 0 -30 29v104q5 29 30 29zM237 325h118q30 -5 30 -30v-118q0 -29 -30 -29
h-118q-29 0 -29 29v118q4 30 29 30zM724 325h104q29 -5 29 -30v-265q0 -30 -29 -30h-104q-29 0 -29 30v265q4 30 29 30zM1197 325h103q30 -5 30 -30v-118q0 -29 -30 -29h-103q-30 0 -30 29v118q5 30 30 30z" />
    <glyph glyph-name="q" unicode="q" horiz-adv-x="1547" 
d="M980 1432l1 -162h324q29 -5 29 -30v-280h133q30 -5 30 -30l-2 -295h-150l1 162h-174v-162h-161l-1 147h-147l-1 -782h-295q-30 0 -30 30v103q5 29 30 29h118v620h-148l-1 -147h-160l-1 162h-148l1 -162h-148q-30 0 -30 29v266q5 30 30 30h132v280q5 30 30 30h307l3 162
h428z" />
    <glyph glyph-name="r" unicode="r" horiz-adv-x="1527" 
d="M227 1434h1065q29 -5 29 -30v-118h133q30 -4 30 -29v-754q0 -30 -30 -30h-133v-133q0 -30 -29 -30h-118v-280q0 -30 -30 -30h-118q-30 0 -30 30v133h-148v-133q0 -30 -29 -30h-104q-29 0 -29 30v133h-133q-30 -5 -30 -30v-133h-133q-30 0 -30 30v280h-133q-29 0 -29 30
v133h-118q-30 0 -30 30v754q5 29 30 29h118v118q4 30 29 30zM375 1109v-621h148v621h-148zM1011 1109v-621h148v621h-148zM686 636v-148h162v74l-1 74h-161z" />
    <glyph glyph-name="s" unicode="s" horiz-adv-x="1497" 
d="M183 1434h133q30 -5 30 -30v-118h310v148h133q30 -5 30 -30v-280h133q29 -5 29 -30v-133h133q30 -5 30 -30v-133h148v473h-133q-30 0 -30 30v103q5 30 30 30h295v-1404q0 -30 -29 -30h-104q-29 0 -29 30v295h-148v-295q0 -30 -30 -30h-118q-29 0 -29 30v295h-148v-295
q0 -30 -30 -30h-103q-30 0 -30 30v293l-148 2v-295q0 -30 -29 -30h-119q-29 0 -29 30v295h-148v326l-133 -1v444q5 30 30 30h103v236v74zM183 961v-163h148v163h-148zM508 961v-163h148v163h-148z" />
    <glyph glyph-name="t" unicode="t" horiz-adv-x="1536" 
d="M844 1430h492v-130q0 -29 -29 -29h-130v-635h130q29 -5 29 -29v-130h130q28 -5 28 -29v-260q0 -29 -28 -29h-130v-130q0 -29 -29 -29h-275q-29 0 -29 29v130h-130q-29 0 -29 29v260q5 29 29 29h130v635h-144v-130q0 -29 -29 -29h-130v-765q0 -29 -29 -29h-130v-130
q0 -29 -29 -29h-274q-29 0 -29 29v130h-130q-29 0 -29 29v260q5 29 29 29h130v130q4 29 29 29h289v447q4 29 29 29h130v130q4 29 28 29h130v159z" />
    <glyph glyph-name="u" unicode="u" horiz-adv-x="1542" 
d="M93 1432h419q29 -5 29 -29v-767h926q29 -4 29 -28v-102q0 -29 -29 -29h-130v-448q0 -29 -29 -29h-130v130q0 29 -29 29h-608v-130q0 -29 -29 -29h-115q-29 0 -29 29v1085h-303l-1 43v246q5 29 29 29z" />
    <glyph glyph-name="v" unicode="v" horiz-adv-x="1234" 
d="M414 1434h430q29 -4 29 -29v-272q0 -29 -29 -29h-129v-129q5 -29 29 -29h358l87 -1v-128q0 -28 -29 -28h-287v-760q0 -29 -29 -29h-114q-29 0 -29 29v286h-143v-286q0 -29 -29 -29h-115q-29 0 -29 29v760h-286q-29 0 -29 28v134q473 -5 473 5v148h-129q-29 0 -29 29v272
q5 29 29 29zM558 946v-157h143v157h-143z" />
    <glyph glyph-name="w" unicode="w" horiz-adv-x="1969" 
d="M469 1432h391q37 -6 37 -37v-168h186v205h390q38 -6 38 -37v-168h167q37 -5 37 -37v-372h168q37 -6 37 -37v-335q0 -37 -37 -37h-168v-167q0 -37 -37 -37h-167v-168q0 -37 -38 -37h-967q-37 0 -37 37v168h-167q-37 0 -37 37v167h-168q-37 0 -37 37v371l205 1v372
q5 37 37 37h167v205zM488 1023v-205h186v205h-186zM1101 1023v-205h186v205h-186zM488 409v-204h985q38 0 40 56v149l-40 -1h-985z" />
    <glyph glyph-name="x" unicode="x" horiz-adv-x="1515" 
d="M523 1432h443q29 -4 29 -29v-129h157l1 -472h129q28 0 28 29v286h129q29 -5 29 -29v-444h-158v-143q0 -28 -28 -28h-129l-1 -158h-157v-143h129q29 -5 29 -29l-1 -143h-773v172h144v143h-158v158h-187l1 171h-129v444q4 29 29 29h100q29 -5 29 -29v-286h143v472h172v158z
M523 802v-158h128q29 0 29 29v100q0 29 -29 29h-128zM838 802v-158h157v129q0 29 -29 29h-128zM523 473v-144h473l-1 144h-472z" />
    <glyph glyph-name="y" unicode="y" horiz-adv-x="1219" 
d="M394 1432h444v-301q0 -28 -29 -28h-115v-143l444 -1q29 -4 29 -28v-115q0 -28 -29 -28h-300v-144h143q28 -4 28 -28v-129h115q21 0 43 -43v-86q0 -21 -43 -43h-286l1 -315h-130q-29 0 -29 29v286h-157v-315h-129q-29 0 -29 29v286h-286q-29 0 -29 29v114q4 29 29 29h129
v129q4 28 28 28h129v144h-286q-29 0 -29 28v115q4 28 29 28h444v144h-129q-29 0 -29 28v272q5 29 29 29zM537 802h143v143h-144z" />
    <glyph glyph-name="z" unicode="z" horiz-adv-x="1203" 
d="M547 1434h101q29 -5 29 -29v-130h131q29 -5 29 -29v-449h159v130q5 29 29 29h101q29 -5 29 -29v-449h-318v-319h130q29 -4 29 -29v-101q0 -29 -29 -29h-739q-29 0 -29 29v101q5 29 29 29h131v478h-290q-29 0 -29 29v420q5 29 29 29h101q29 -4 29 -29v-289h160v449
q4 29 29 29h130v130q5 29 29 29z" />
    <glyph glyph-name="braceleft" unicode="{" horiz-adv-x="1517" 
 />
    <glyph glyph-name="bar" unicode="|" horiz-adv-x="1536" 
 />
    <glyph glyph-name="braceright" unicode="}" horiz-adv-x="1547" 
 />
    <glyph glyph-name="asciitilde" unicode="~" 
 />
    <glyph glyph-name="exclamdown" unicode="&#xa1;" horiz-adv-x="672" 
 />
    <glyph glyph-name="cent" unicode="&#xa2;" horiz-adv-x="1139" 
 />
    <glyph glyph-name="sterling" unicode="&#xa3;" 
 />
    <glyph glyph-name="currency" unicode="&#xa4;" 
 />
    <glyph glyph-name="yen" unicode="&#xa5;" horiz-adv-x="1262" 
 />
    <glyph glyph-name="brokenbar" unicode="&#xa6;" 
 />
    <glyph glyph-name="section" unicode="&#xa7;" 
 />
    <glyph glyph-name="dieresis" unicode="&#xa8;" horiz-adv-x="1024" 
 />
    <glyph glyph-name="copyright" unicode="&#xa9;" horiz-adv-x="2923" 
d="M98 1440h441l12 -6l-6 -11v-321q0 -11 -11 -11h-327l-6 -29v-166l6 -29l-11 -5h-98q-11 0 -11 11v555q2 12 11 12zM671 1440h326q12 -2 12 -12v-97q0 -11 -12 -11h-103v-338h103q12 -2 12 -12v-97q0 -11 -12 -11h-326q-12 0 -12 11v97q2 12 12 12h103v338h-103
q-12 0 -12 11v97q2 12 12 12zM1129 1440h97q12 -2 12 -12v-103h103q11 -1 11 -11v-103h109v103q2 11 11 11h103v103q2 12 12 12h97q12 -2 12 -12v-97q0 -11 -12 -11h-103v-103q0 -12 -11 -12h-103v-109h103q11 -1 11 -11v-103h103q12 -2 12 -12v-97q0 -11 -12 -11h-97
q-12 0 -12 11v103h-103q-11 0 -11 12v103h-109v-103q0 -12 -11 -12h-103v-103q0 -11 -12 -11h-97q-12 0 -12 11v97q2 12 12 12h103v103q2 11 11 11h103v109h-103q-11 0 -11 12v103h-103q-12 0 -12 11v97q2 12 12 12zM1816 1440h441q11 -2 11 -12v-97q0 -11 -11 -11h-332
v-109h217q12 -2 12 -12v-97q0 -11 -12 -11h-217v-109h332q11 -2 11 -12v-97q0 -11 -11 -11h-441q-12 0 -12 11v555q2 12 12 12zM2388 1440h98q11 -2 11 -12v-446h223v103q2 11 12 11h97q12 -1 12 -11v-212q0 -11 -12 -11h-441q-11 0 -11 11v555q2 12 11 12zM213 1314l-6 -29
v-11l6 -57h212v97h-212zM121 726h23q12 -2 12 -15v-30q0 -15 -12 -15h-23q-11 0 -11 15v30q2 15 11 15zM1799 726h23q11 -2 11 -15v-30q0 -15 -11 -15h-23q-12 0 -12 15v30q2 15 12 15zM2469 726h22q12 -2 12 -15v-30q0 -15 -12 -15h-22q-12 0 -12 15v30q2 15 12 15z
M1919 696h69q11 -2 11 -15v-203h29q11 -2 11 -15q0 -15 -11 -15h-109q-12 0 -12 15q2 15 12 15h34v188h-34q-12 0 -12 15q2 15 12 15zM2280 696h23q11 -2 11 -15v-38h51q12 -2 12 -15q0 -15 -12 -15h-51v-135h51q12 -2 12 -15q0 -15 -12 -15h-62l-35 37v128q-23 0 -23 15
t23 15v38q2 15 12 15zM76 643h68q12 -2 12 -15v-150h28q12 -2 12 -15q0 -15 -12 -15h-108q-12 0 -12 15q2 15 12 15h34v135h-34q-12 0 -12 15q2 15 12 15zM333 643q22 -37 34 -37v-8q0 -15 -11 -15h-23q-11 0 -11 30h-40v-135h40q0 30 11 30h23q11 -2 11 -15v-8l-34 -37h-63
l-34 37v113q28 29 28 45h69zM499 643q22 -37 35 -37v-121l-35 -37h-63l-34 37v113q28 29 28 45h69zM579 643h86q22 -37 35 -37v-143q0 -15 -12 -15h-23q-11 0 -11 15v150h-40v-150q0 -15 -12 -15h-23q-11 0 -11 15v165q2 15 11 15zM854 643q12 -2 12 -15q0 -15 -12 -15h-74
v-52h51q22 -38 35 -38v-38l-35 -37h-86q-11 0 -11 15q2 15 11 15h75v53h-52l-34 37v30q29 29 29 45h91zM1169 643q22 -37 34 -37v-8q0 -15 -11 -15h-23q-11 0 -11 30h-41v-135h41q0 30 11 30h23q11 -2 11 -15v-8l-34 -37h-63l-34 37v113q28 29 28 45h69zM1335 643
q22 -37 34 -37v-121l-34 -37h-63l-34 37v113q28 29 28 45h69zM1415 643h109q22 -37 34 -37v-143q0 -15 -11 -15h-23q-12 0 -12 15v150h-17v-128q0 -15 -11 -15h-6q-11 0 -11 15v128h-17v-150q0 -15 -12 -15h-23q-11 0 -11 15v165q1 15 11 15zM1587 643h86q22 -37 34 -37
v-121l-34 -37h-40v-150h74q12 -3 12 -15v-16q0 -15 -12 -15h-74v-172h74q12 -3 12 -15v-8q0 -15 -12 -15h-91q-20 35 -41 38v172q-28 0 -28 15v16q0 15 28 15v330q2 15 12 15zM1753 643h69q11 -2 11 -15v-150h29q11 -2 11 -15q0 -15 -11 -15h-109q-12 0 -12 15q2 15 12 15
h34v135h-34q-12 0 -12 15q2 15 12 15zM2108 643h63q22 -37 34 -37v-143q0 -15 -11 -15h-86l-34 37v31q28 29 28 45h57v52h-51q-12 0 -12 15q2 15 12 15zM2423 643h68q12 -2 12 -15v-150h29q11 -2 11 -15q0 -15 -11 -15h-109q-12 0 -12 15q2 15 12 15h34v135h-34
q-12 0 -12 15q2 15 12 15zM2675 643q22 -37 34 -37v-121l-34 -37h-63l-35 37v113q29 29 29 45h69zM2755 643h86q22 -37 34 -37v-143q0 -15 -11 -15h-23q-12 0 -12 15v150h-40v-150q0 -15 -11 -15h-23q-12 0 -12 15v165q2 15 12 15zM448 613v-135h40v135h-40zM1283 613v-135
h41v135h-41zM1621 613v-135h40v135h-40zM2623 613v-135h40v135h-40zM2119 531v-53h40v53h-40zM797 365h40q11 -2 11 -15v-293q0 -15 -11 -15h-120q-20 35 -40 38v165q28 20 28 30q0 23 12 23h68v52q2 15 12 15zM1369 365h35q11 -2 11 -15v-52h75q11 -3 11 -15v-16
q0 -15 -11 -15h-75v-172h75q11 -3 11 -15v-8q0 -15 -11 -15h-92q-20 35 -40 38v172q-29 0 -29 15v16q0 15 29 15v52q2 15 11 15zM35 298h41q11 -3 11 -15v-166h23v128q2 15 11 15h6q11 -2 11 -15v-128h23v166q2 15 12 15h34q12 -3 12 -15v-158q0 -15 -23 -15v-53
q0 -15 -12 -15h-40q-11 0 -11 15v53h-23v-53q0 -15 -12 -15h-34q-11 0 -11 15v53q-29 0 -29 15v158q2 15 11 15zM282 298h91q15 -38 23 -38q17 0 17 -15v-158q-28 -20 -28 -30q0 -15 -12 -15h-91q-20 35 -40 38v165q28 20 28 30q0 23 12 23zM499 298h92q15 -38 23 -38
q17 0 17 -15v-158q-29 -20 -29 -30q0 -15 -11 -15h-92q-19 35 -40 38v165q29 20 29 30q0 23 11 23zM934 298h92q15 -38 23 -38q17 0 17 -15v-15q0 -15 -12 -15h-40q-11 0 -11 37h-46v-172h46q0 37 11 37h40q12 -2 12 -15v-15q-29 -20 -29 -30q0 -15 -11 -15h-92
q-19 35 -40 38v165q29 20 29 30q0 23 11 23zM1123 298h40q12 -3 12 -15v-203h46v203q1 15 11 15h40q11 -3 11 -15v-226q0 -15 -11 -15h-120q-20 35 -40 38v203q2 15 11 15zM1804 298h92q15 -38 23 -38q17 0 17 -15v-83q0 -15 -11 -15h-98v-67h69q11 -3 11 -15v-8
q0 -15 -11 -15h-92q-19 35 -40 38v165q29 20 29 30q0 23 11 23zM1993 298h40q12 -3 12 -15v-61h23q0 45 23 45q0 31 11 31h40q12 -3 12 -15v-53q0 -15 -12 -15h-74q0 -30 -23 -30v-128q0 -15 -12 -15h-40q-11 0 -11 15v226q2 15 11 15zM2463 298h91q15 -38 23 -38
q17 0 17 -15v-83q0 -15 -11 -15h-97v-67h68q12 -3 12 -15v-8q0 -15 -12 -15h-91q-20 35 -40 38v165q28 20 28 30q0 23 12 23zM2680 298h121q11 -3 11 -15v-16q0 -15 -11 -15h-98v-67h69q20 -35 40 -38v-60q-29 -20 -29 -30q0 -15 -11 -15h-120q-12 0 -12 15v8q2 15 12 15h97
v67h-69q-15 38 -23 38q-17 0 -17 15v45q29 20 29 30q0 23 11 23zM305 252v-172h45v172h-45zM522 252v-172h46v172h-46zM740 252v-172h45v172h-45zM1827 252v-67h46v67h-46zM2486 252v-67h46v67h-46zM2274 117h63q11 -2 11 -15v-45q0 -15 -11 -15h-63q-12 0 -12 15v45
q2 15 12 15z" />
    <glyph glyph-name="ordfeminine" unicode="&#xaa;" horiz-adv-x="648" 
 />
    <glyph glyph-name="guillemotleft" unicode="&#xab;" horiz-adv-x="944" 
 />
    <glyph glyph-name="logicalnot" unicode="&#xac;" 
 />
    <glyph glyph-name="registered" unicode="&#xae;" horiz-adv-x="2923" 
d="M98 1440h441l12 -6l-6 -11v-321q0 -11 -11 -11h-327l-6 -29v-166l6 -29l-11 -5h-98q-11 0 -11 11v555q2 12 11 12zM671 1440h326q12 -2 12 -12v-97q0 -11 -12 -11h-103v-338h103q12 -2 12 -12v-97q0 -11 -12 -11h-326q-12 0 -12 11v97q2 12 12 12h103v338h-103
q-12 0 -12 11v97q2 12 12 12zM1129 1440h97q12 -2 12 -12v-103h103q11 -1 11 -11v-103h109v103q2 11 11 11h103v103q2 12 12 12h97q12 -2 12 -12v-97q0 -11 -12 -11h-103v-103q0 -12 -11 -12h-103v-109h103q11 -1 11 -11v-103h103q12 -2 12 -12v-97q0 -11 -12 -11h-97
q-12 0 -12 11v103h-103q-11 0 -11 12v103h-109v-103q0 -12 -11 -12h-103v-103q0 -11 -12 -11h-97q-12 0 -12 11v97q2 12 12 12h103v103q2 11 11 11h103v109h-103q-11 0 -11 12v103h-103q-12 0 -12 11v97q2 12 12 12zM1816 1440h441q11 -2 11 -12v-97q0 -11 -11 -11h-332
v-109h217q12 -2 12 -12v-97q0 -11 -12 -11h-217v-109h332q11 -2 11 -12v-97q0 -11 -11 -11h-441q-12 0 -12 11v555q2 12 12 12zM2388 1440h98q11 -2 11 -12v-446h223v103q2 11 12 11h97q12 -1 12 -11v-212q0 -11 -12 -11h-441q-11 0 -11 11v555q2 12 11 12zM213 1314l-6 -29
v-11l6 -57h212v97h-212zM121 726h23q12 -2 12 -15v-30q0 -15 -12 -15h-23q-11 0 -11 15v30q2 15 11 15zM1799 726h23q11 -2 11 -15v-30q0 -15 -11 -15h-23q-12 0 -12 15v30q2 15 12 15zM2469 726h22q12 -2 12 -15v-30q0 -15 -12 -15h-22q-12 0 -12 15v30q2 15 12 15z
M1919 696h69q11 -2 11 -15v-203h29q11 -2 11 -15q0 -15 -11 -15h-109q-12 0 -12 15q2 15 12 15h34v188h-34q-12 0 -12 15q2 15 12 15zM2280 696h23q11 -2 11 -15v-38h51q12 -2 12 -15q0 -15 -12 -15h-51v-135h51q12 -2 12 -15q0 -15 -12 -15h-62l-35 37v128q-23 0 -23 15
t23 15v38q2 15 12 15zM76 643h68q12 -2 12 -15v-150h28q12 -2 12 -15q0 -15 -12 -15h-108q-12 0 -12 15q2 15 12 15h34v135h-34q-12 0 -12 15q2 15 12 15zM333 643q22 -37 34 -37v-8q0 -15 -11 -15h-23q-11 0 -11 30h-40v-135h40q0 30 11 30h23q11 -2 11 -15v-8l-34 -37h-63
l-34 37v113q28 29 28 45h69zM499 643q22 -37 35 -37v-121l-35 -37h-63l-34 37v113q28 29 28 45h69zM579 643h86q22 -37 35 -37v-143q0 -15 -12 -15h-23q-11 0 -11 15v150h-40v-150q0 -15 -12 -15h-23q-11 0 -11 15v165q2 15 11 15zM854 643q12 -2 12 -15q0 -15 -12 -15h-74
v-52h51q22 -38 35 -38v-38l-35 -37h-86q-11 0 -11 15q2 15 11 15h75v53h-52l-34 37v30q29 29 29 45h91zM1169 643q22 -37 34 -37v-8q0 -15 -11 -15h-23q-11 0 -11 30h-41v-135h41q0 30 11 30h23q11 -2 11 -15v-8l-34 -37h-63l-34 37v113q28 29 28 45h69zM1335 643
q22 -37 34 -37v-121l-34 -37h-63l-34 37v113q28 29 28 45h69zM1415 643h109q22 -37 34 -37v-143q0 -15 -11 -15h-23q-12 0 -12 15v150h-17v-128q0 -15 -11 -15h-6q-11 0 -11 15v128h-17v-150q0 -15 -12 -15h-23q-11 0 -11 15v165q1 15 11 15zM1587 643h86q22 -37 34 -37
v-121l-34 -37h-40v-150h74q12 -3 12 -15v-16q0 -15 -12 -15h-74v-172h74q12 -3 12 -15v-8q0 -15 -12 -15h-91q-20 35 -41 38v172q-28 0 -28 15v16q0 15 28 15v330q2 15 12 15zM1753 643h69q11 -2 11 -15v-150h29q11 -2 11 -15q0 -15 -11 -15h-109q-12 0 -12 15q2 15 12 15
h34v135h-34q-12 0 -12 15q2 15 12 15zM2108 643h63q22 -37 34 -37v-143q0 -15 -11 -15h-86l-34 37v31q28 29 28 45h57v52h-51q-12 0 -12 15q2 15 12 15zM2423 643h68q12 -2 12 -15v-150h29q11 -2 11 -15q0 -15 -11 -15h-109q-12 0 -12 15q2 15 12 15h34v135h-34
q-12 0 -12 15q2 15 12 15zM2675 643q22 -37 34 -37v-121l-34 -37h-63l-35 37v113q29 29 29 45h69zM2755 643h86q22 -37 34 -37v-143q0 -15 -11 -15h-23q-12 0 -12 15v150h-40v-150q0 -15 -11 -15h-23q-12 0 -12 15v165q2 15 12 15zM448 613v-135h40v135h-40zM1283 613v-135
h41v135h-41zM1621 613v-135h40v135h-40zM2623 613v-135h40v135h-40zM2119 531v-53h40v53h-40zM797 365h40q11 -2 11 -15v-293q0 -15 -11 -15h-120q-20 35 -40 38v165q28 20 28 30q0 23 12 23h68v52q2 15 12 15zM1369 365h35q11 -2 11 -15v-52h75q11 -3 11 -15v-16
q0 -15 -11 -15h-75v-172h75q11 -3 11 -15v-8q0 -15 -11 -15h-92q-20 35 -40 38v172q-29 0 -29 15v16q0 15 29 15v52q2 15 11 15zM35 298h41q11 -3 11 -15v-166h23v128q2 15 11 15h6q11 -2 11 -15v-128h23v166q2 15 12 15h34q12 -3 12 -15v-158q0 -15 -23 -15v-53
q0 -15 -12 -15h-40q-11 0 -11 15v53h-23v-53q0 -15 -12 -15h-34q-11 0 -11 15v53q-29 0 -29 15v158q2 15 11 15zM282 298h91q15 -38 23 -38q17 0 17 -15v-158q-28 -20 -28 -30q0 -15 -12 -15h-91q-20 35 -40 38v165q28 20 28 30q0 23 12 23zM499 298h92q15 -38 23 -38
q17 0 17 -15v-158q-29 -20 -29 -30q0 -15 -11 -15h-92q-19 35 -40 38v165q29 20 29 30q0 23 11 23zM934 298h92q15 -38 23 -38q17 0 17 -15v-15q0 -15 -12 -15h-40q-11 0 -11 37h-46v-172h46q0 37 11 37h40q12 -2 12 -15v-15q-29 -20 -29 -30q0 -15 -11 -15h-92
q-19 35 -40 38v165q29 20 29 30q0 23 11 23zM1123 298h40q12 -3 12 -15v-203h46v203q1 15 11 15h40q11 -3 11 -15v-226q0 -15 -11 -15h-120q-20 35 -40 38v203q2 15 11 15zM1804 298h92q15 -38 23 -38q17 0 17 -15v-83q0 -15 -11 -15h-98v-67h69q11 -3 11 -15v-8
q0 -15 -11 -15h-92q-19 35 -40 38v165q29 20 29 30q0 23 11 23zM1993 298h40q12 -3 12 -15v-61h23q0 45 23 45q0 31 11 31h40q12 -3 12 -15v-53q0 -15 -12 -15h-74q0 -30 -23 -30v-128q0 -15 -12 -15h-40q-11 0 -11 15v226q2 15 11 15zM2463 298h91q15 -38 23 -38
q17 0 17 -15v-83q0 -15 -11 -15h-97v-67h68q12 -3 12 -15v-8q0 -15 -12 -15h-91q-20 35 -40 38v165q28 20 28 30q0 23 12 23zM2680 298h121q11 -3 11 -15v-16q0 -15 -11 -15h-98v-67h69q20 -35 40 -38v-60q-29 -20 -29 -30q0 -15 -11 -15h-120q-12 0 -12 15v8q2 15 12 15h97
v67h-69q-15 38 -23 38q-17 0 -17 15v45q29 20 29 30q0 23 11 23zM305 252v-172h45v172h-45zM522 252v-172h46v172h-46zM740 252v-172h45v172h-45zM1827 252v-67h46v67h-46zM2486 252v-67h46v67h-46zM2274 117h63q11 -2 11 -15v-45q0 -15 -11 -15h-63q-12 0 -12 15v45
q2 15 12 15z" />
    <glyph glyph-name="macron" unicode="&#xaf;" horiz-adv-x="670" 
 />
    <glyph glyph-name="degree" unicode="&#xb0;" horiz-adv-x="674" 
 />
    <glyph glyph-name="plusminus" unicode="&#xb1;" 
 />
    <glyph glyph-name="uni00B2" unicode="&#xb2;" 
 />
    <glyph glyph-name="uni00B3" unicode="&#xb3;" 
 />
    <glyph glyph-name="acute" unicode="&#xb4;" horiz-adv-x="1024" 
 />
    <glyph glyph-name="mu" unicode="&#xb5;" horiz-adv-x="1180" 
 />
    <glyph glyph-name="paragraph" unicode="&#xb6;" horiz-adv-x="1024" 
 />
    <glyph glyph-name="periodcentered" unicode="&#xb7;" horiz-adv-x="508" 
 />
    <glyph glyph-name="periodcentered" unicode="&#x2219;" horiz-adv-x="508" 
 />
    <glyph glyph-name="cedilla" unicode="&#xb8;" horiz-adv-x="1024" 
 />
    <glyph glyph-name="uni00B9" unicode="&#xb9;" 
 />
    <glyph glyph-name="ordmasculine" unicode="&#xba;" horiz-adv-x="718" 
 />
    <glyph glyph-name="guillemotright" unicode="&#xbb;" horiz-adv-x="944" 
 />
    <glyph glyph-name="onequarter" unicode="&#xbc;" horiz-adv-x="1708" 
 />
    <glyph glyph-name="onehalf" unicode="&#xbd;" horiz-adv-x="1964" 
 />
    <glyph glyph-name="threequarters" unicode="&#xbe;" horiz-adv-x="1708" 
 />
    <glyph glyph-name="questiondown" unicode="&#xbf;" horiz-adv-x="748" 
 />
    <glyph glyph-name="Agrave" unicode="&#xc0;" horiz-adv-x="1540" 
 />
    <glyph glyph-name="Aacute" unicode="&#xc1;" horiz-adv-x="1540" 
 />
    <glyph glyph-name="Acircumflex" unicode="&#xc2;" horiz-adv-x="1540" 
 />
    <glyph glyph-name="Atilde" unicode="&#xc3;" horiz-adv-x="1540" 
 />
    <glyph glyph-name="Adieresis" unicode="&#xc4;" horiz-adv-x="1540" 
 />
    <glyph glyph-name="Aring" unicode="&#xc5;" horiz-adv-x="1540" 
 />
    <glyph glyph-name="AE" unicode="&#xc6;" horiz-adv-x="2118" 
 />
    <glyph glyph-name="Ccedilla" unicode="&#xc7;" horiz-adv-x="1399" 
 />
    <glyph glyph-name="Egrave" unicode="&#xc8;" horiz-adv-x="1151" 
 />
    <glyph glyph-name="Eacute" unicode="&#xc9;" horiz-adv-x="1151" 
 />
    <glyph glyph-name="Ecircumflex" unicode="&#xca;" horiz-adv-x="1151" 
 />
    <glyph glyph-name="Edieresis" unicode="&#xcb;" horiz-adv-x="1151" 
 />
    <glyph glyph-name="Igrave" unicode="&#xcc;" horiz-adv-x="657" 
 />
    <glyph glyph-name="Iacute" unicode="&#xcd;" horiz-adv-x="657" 
 />
    <glyph glyph-name="Icircumflex" unicode="&#xce;" horiz-adv-x="657" 
 />
    <glyph glyph-name="Idieresis" unicode="&#xcf;" horiz-adv-x="657" 
 />
    <glyph glyph-name="Eth" unicode="&#xd0;" horiz-adv-x="1518" 
 />
    <glyph glyph-name="Ntilde" unicode="&#xd1;" horiz-adv-x="1554" 
 />
    <glyph glyph-name="Ograve" unicode="&#xd2;" horiz-adv-x="1614" 
 />
    <glyph glyph-name="Oacute" unicode="&#xd3;" horiz-adv-x="1614" 
 />
    <glyph glyph-name="Ocircumflex" unicode="&#xd4;" horiz-adv-x="1614" 
 />
    <glyph glyph-name="Otilde" unicode="&#xd5;" horiz-adv-x="1614" 
 />
    <glyph glyph-name="Odieresis" unicode="&#xd6;" horiz-adv-x="1614" 
 />
    <glyph glyph-name="multiply" unicode="&#xd7;" 
 />
    <glyph glyph-name="Oslash" unicode="&#xd8;" horiz-adv-x="1614" 
 />
    <glyph glyph-name="Ugrave" unicode="&#xd9;" horiz-adv-x="1501" 
 />
    <glyph glyph-name="Uacute" unicode="&#xda;" horiz-adv-x="1501" 
 />
    <glyph glyph-name="Ucircumflex" unicode="&#xdb;" horiz-adv-x="1501" 
 />
    <glyph glyph-name="Udieresis" unicode="&#xdc;" horiz-adv-x="1501" 
 />
    <glyph glyph-name="Yacute" unicode="&#xdd;" horiz-adv-x="1233" 
 />
    <glyph glyph-name="Thorn" unicode="&#xde;" horiz-adv-x="1120" 
 />
    <glyph glyph-name="germandbls" unicode="&#xdf;" horiz-adv-x="1251" 
 />
    <glyph glyph-name="agrave" unicode="&#xe0;" horiz-adv-x="922" 
 />
    <glyph glyph-name="aacute" unicode="&#xe1;" horiz-adv-x="922" 
 />
    <glyph glyph-name="acircumflex" unicode="&#xe2;" horiz-adv-x="922" 
 />
    <glyph glyph-name="atilde" unicode="&#xe3;" horiz-adv-x="922" 
 />
    <glyph glyph-name="adieresis" unicode="&#xe4;" horiz-adv-x="922" 
 />
    <glyph glyph-name="aring" unicode="&#xe5;" horiz-adv-x="922" 
 />
    <glyph glyph-name="ae" unicode="&#xe6;" horiz-adv-x="1454" 
 />
    <glyph glyph-name="ccedilla" unicode="&#xe7;" horiz-adv-x="905" 
 />
    <glyph glyph-name="egrave" unicode="&#xe8;" horiz-adv-x="909" 
 />
    <glyph glyph-name="eacute" unicode="&#xe9;" horiz-adv-x="909" 
 />
    <glyph glyph-name="ecircumflex" unicode="&#xea;" horiz-adv-x="909" 
 />
    <glyph glyph-name="edieresis" unicode="&#xeb;" horiz-adv-x="909" 
 />
    <glyph glyph-name="igrave" unicode="&#xec;" horiz-adv-x="514" 
 />
    <glyph glyph-name="iacute" unicode="&#xed;" horiz-adv-x="514" 
 />
    <glyph glyph-name="icircumflex" unicode="&#xee;" horiz-adv-x="514" 
 />
    <glyph glyph-name="idieresis" unicode="&#xef;" horiz-adv-x="514" 
 />
    <glyph glyph-name="eth" unicode="&#xf0;" horiz-adv-x="1139" 
 />
    <glyph glyph-name="ntilde" unicode="&#xf1;" horiz-adv-x="1108" 
 />
    <glyph glyph-name="ograve" unicode="&#xf2;" horiz-adv-x="1010" 
 />
    <glyph glyph-name="oacute" unicode="&#xf3;" horiz-adv-x="1010" 
 />
    <glyph glyph-name="ocircumflex" unicode="&#xf4;" horiz-adv-x="1010" 
 />
    <glyph glyph-name="otilde" unicode="&#xf5;" horiz-adv-x="1010" 
 />
    <glyph glyph-name="odieresis" unicode="&#xf6;" horiz-adv-x="1010" 
 />
    <glyph glyph-name="divide" unicode="&#xf7;" 
 />
    <glyph glyph-name="oslash" unicode="&#xf8;" horiz-adv-x="1010" 
 />
    <glyph glyph-name="ugrave" unicode="&#xf9;" horiz-adv-x="1059" 
 />
    <glyph glyph-name="uacute" unicode="&#xfa;" horiz-adv-x="1059" 
 />
    <glyph glyph-name="ucircumflex" unicode="&#xfb;" horiz-adv-x="1059" 
 />
    <glyph glyph-name="udieresis" unicode="&#xfc;" horiz-adv-x="1059" 
 />
    <glyph glyph-name="yacute" unicode="&#xfd;" horiz-adv-x="868" 
 />
    <glyph glyph-name="thorn" unicode="&#xfe;" horiz-adv-x="1010" 
 />
    <glyph glyph-name="ydieresis" unicode="&#xff;" horiz-adv-x="868" 
 />
    <glyph glyph-name="dotlessi" unicode="&#x131;" horiz-adv-x="514" 
 />
    <glyph glyph-name="circumflex" unicode="&#x2c6;" horiz-adv-x="1024" 
 />
    <glyph glyph-name="caron" unicode="&#x2c7;" horiz-adv-x="1024" 
 />
    <glyph glyph-name="uni02C9" unicode="&#x2c9;" horiz-adv-x="1024" 
 />
    <glyph glyph-name="breve" unicode="&#x2d8;" horiz-adv-x="1024" 
 />
    <glyph glyph-name="dotaccent" unicode="&#x2d9;" horiz-adv-x="1024" 
 />
    <glyph glyph-name="ring" unicode="&#x2da;" horiz-adv-x="1024" 
 />
    <glyph glyph-name="ogonek" unicode="&#x2db;" horiz-adv-x="1024" 
 />
    <glyph glyph-name="tilde" unicode="&#x2dc;" horiz-adv-x="1024" 
 />
    <glyph glyph-name="hungarumlaut" unicode="&#x2dd;" horiz-adv-x="1024" 
 />
    <glyph glyph-name="endash" unicode="&#x2013;" horiz-adv-x="1108" 
 />
    <glyph glyph-name="emdash" unicode="&#x2014;" horiz-adv-x="2048" 
 />
    <glyph glyph-name="quoteleft" unicode="&#x2018;" horiz-adv-x="557" 
 />
    <glyph glyph-name="quoteright" unicode="&#x2019;" horiz-adv-x="557" 
 />
    <glyph glyph-name="quotesinglbase" unicode="&#x201a;" horiz-adv-x="557" 
 />
    <glyph glyph-name="quotedblleft" unicode="&#x201c;" horiz-adv-x="910" 
 />
    <glyph glyph-name="quotedblright" unicode="&#x201d;" horiz-adv-x="910" 
 />
    <glyph glyph-name="quotedblbase" unicode="&#x201e;" horiz-adv-x="910" 
 />
    <glyph glyph-name="dagger" unicode="&#x2020;" 
 />
    <glyph glyph-name="daggerdbl" unicode="&#x2021;" 
 />
    <glyph glyph-name="bullet" unicode="&#x2022;" horiz-adv-x="1024" 
 />
    <glyph glyph-name="ellipsis" unicode="&#x2026;" horiz-adv-x="2048" 
 />
    <glyph glyph-name="guilsinglleft" unicode="&#x2039;" horiz-adv-x="631" 
 />
    <glyph glyph-name="guilsinglright" unicode="&#x203a;" horiz-adv-x="631" 
 />
    <glyph glyph-name="fraction" unicode="&#x2044;" horiz-adv-x="342" 
 />
    <glyph glyph-name="fraction" unicode="&#x2215;" horiz-adv-x="342" 
 />
    <glyph glyph-name="franc" unicode="&#x20a3;" 
 />
    <glyph glyph-name="lira" unicode="&#x20a4;" 
 />
    <glyph glyph-name="peseta" unicode="&#x20a7;" horiz-adv-x="2028" 
 />
    <glyph glyph-name="Euro" unicode="&#x20ac;" horiz-adv-x="2923" 
d="M98 1440h441l12 -6l-6 -11v-321q0 -11 -11 -11h-327l-6 -29v-166l6 -29l-11 -5h-98q-11 0 -11 11v555q2 12 11 12zM671 1440h326q12 -2 12 -12v-97q0 -11 -12 -11h-103v-338h103q12 -2 12 -12v-97q0 -11 -12 -11h-326q-12 0 -12 11v97q2 12 12 12h103v338h-103
q-12 0 -12 11v97q2 12 12 12zM1129 1440h97q12 -2 12 -12v-103h103q11 -1 11 -11v-103h109v103q2 11 11 11h103v103q2 12 12 12h97q12 -2 12 -12v-97q0 -11 -12 -11h-103v-103q0 -12 -11 -12h-103v-109h103q11 -1 11 -11v-103h103q12 -2 12 -12v-97q0 -11 -12 -11h-97
q-12 0 -12 11v103h-103q-11 0 -11 12v103h-109v-103q0 -12 -11 -12h-103v-103q0 -11 -12 -11h-97q-12 0 -12 11v97q2 12 12 12h103v103q2 11 11 11h103v109h-103q-11 0 -11 12v103h-103q-12 0 -12 11v97q2 12 12 12zM1816 1440h441q11 -2 11 -12v-97q0 -11 -11 -11h-332
v-109h217q12 -2 12 -12v-97q0 -11 -12 -11h-217v-109h332q11 -2 11 -12v-97q0 -11 -11 -11h-441q-12 0 -12 11v555q2 12 12 12zM2388 1440h98q11 -2 11 -12v-446h223v103q2 11 12 11h97q12 -1 12 -11v-212q0 -11 -12 -11h-441q-11 0 -11 11v555q2 12 11 12zM213 1314l-6 -29
v-11l6 -57h212v97h-212zM121 726h23q12 -2 12 -15v-30q0 -15 -12 -15h-23q-11 0 -11 15v30q2 15 11 15zM1799 726h23q11 -2 11 -15v-30q0 -15 -11 -15h-23q-12 0 -12 15v30q2 15 12 15zM2469 726h22q12 -2 12 -15v-30q0 -15 -12 -15h-22q-12 0 -12 15v30q2 15 12 15z
M1919 696h69q11 -2 11 -15v-203h29q11 -2 11 -15q0 -15 -11 -15h-109q-12 0 -12 15q2 15 12 15h34v188h-34q-12 0 -12 15q2 15 12 15zM2280 696h23q11 -2 11 -15v-38h51q12 -2 12 -15q0 -15 -12 -15h-51v-135h51q12 -2 12 -15q0 -15 -12 -15h-62l-35 37v128q-23 0 -23 15
t23 15v38q2 15 12 15zM76 643h68q12 -2 12 -15v-150h28q12 -2 12 -15q0 -15 -12 -15h-108q-12 0 -12 15q2 15 12 15h34v135h-34q-12 0 -12 15q2 15 12 15zM333 643q22 -37 34 -37v-8q0 -15 -11 -15h-23q-11 0 -11 30h-40v-135h40q0 30 11 30h23q11 -2 11 -15v-8l-34 -37h-63
l-34 37v113q28 29 28 45h69zM499 643q22 -37 35 -37v-121l-35 -37h-63l-34 37v113q28 29 28 45h69zM579 643h86q22 -37 35 -37v-143q0 -15 -12 -15h-23q-11 0 -11 15v150h-40v-150q0 -15 -12 -15h-23q-11 0 -11 15v165q2 15 11 15zM854 643q12 -2 12 -15q0 -15 -12 -15h-74
v-52h51q22 -38 35 -38v-38l-35 -37h-86q-11 0 -11 15q2 15 11 15h75v53h-52l-34 37v30q29 29 29 45h91zM1169 643q22 -37 34 -37v-8q0 -15 -11 -15h-23q-11 0 -11 30h-41v-135h41q0 30 11 30h23q11 -2 11 -15v-8l-34 -37h-63l-34 37v113q28 29 28 45h69zM1335 643
q22 -37 34 -37v-121l-34 -37h-63l-34 37v113q28 29 28 45h69zM1415 643h109q22 -37 34 -37v-143q0 -15 -11 -15h-23q-12 0 -12 15v150h-17v-128q0 -15 -11 -15h-6q-11 0 -11 15v128h-17v-150q0 -15 -12 -15h-23q-11 0 -11 15v165q1 15 11 15zM1587 643h86q22 -37 34 -37
v-121l-34 -37h-40v-150h74q12 -3 12 -15v-16q0 -15 -12 -15h-74v-172h74q12 -3 12 -15v-8q0 -15 -12 -15h-91q-20 35 -41 38v172q-28 0 -28 15v16q0 15 28 15v330q2 15 12 15zM1753 643h69q11 -2 11 -15v-150h29q11 -2 11 -15q0 -15 -11 -15h-109q-12 0 -12 15q2 15 12 15
h34v135h-34q-12 0 -12 15q2 15 12 15zM2108 643h63q22 -37 34 -37v-143q0 -15 -11 -15h-86l-34 37v31q28 29 28 45h57v52h-51q-12 0 -12 15q2 15 12 15zM2423 643h68q12 -2 12 -15v-150h29q11 -2 11 -15q0 -15 -11 -15h-109q-12 0 -12 15q2 15 12 15h34v135h-34
q-12 0 -12 15q2 15 12 15zM2675 643q22 -37 34 -37v-121l-34 -37h-63l-35 37v113q29 29 29 45h69zM2755 643h86q22 -37 34 -37v-143q0 -15 -11 -15h-23q-12 0 -12 15v150h-40v-150q0 -15 -11 -15h-23q-12 0 -12 15v165q2 15 12 15zM448 613v-135h40v135h-40zM1283 613v-135
h41v135h-41zM1621 613v-135h40v135h-40zM2623 613v-135h40v135h-40zM2119 531v-53h40v53h-40zM797 365h40q11 -2 11 -15v-293q0 -15 -11 -15h-120q-20 35 -40 38v165q28 20 28 30q0 23 12 23h68v52q2 15 12 15zM1369 365h35q11 -2 11 -15v-52h75q11 -3 11 -15v-16
q0 -15 -11 -15h-75v-172h75q11 -3 11 -15v-8q0 -15 -11 -15h-92q-20 35 -40 38v172q-29 0 -29 15v16q0 15 29 15v52q2 15 11 15zM35 298h41q11 -3 11 -15v-166h23v128q2 15 11 15h6q11 -2 11 -15v-128h23v166q2 15 12 15h34q12 -3 12 -15v-158q0 -15 -23 -15v-53
q0 -15 -12 -15h-40q-11 0 -11 15v53h-23v-53q0 -15 -12 -15h-34q-11 0 -11 15v53q-29 0 -29 15v158q2 15 11 15zM282 298h91q15 -38 23 -38q17 0 17 -15v-158q-28 -20 -28 -30q0 -15 -12 -15h-91q-20 35 -40 38v165q28 20 28 30q0 23 12 23zM499 298h92q15 -38 23 -38
q17 0 17 -15v-158q-29 -20 -29 -30q0 -15 -11 -15h-92q-19 35 -40 38v165q29 20 29 30q0 23 11 23zM934 298h92q15 -38 23 -38q17 0 17 -15v-15q0 -15 -12 -15h-40q-11 0 -11 37h-46v-172h46q0 37 11 37h40q12 -2 12 -15v-15q-29 -20 -29 -30q0 -15 -11 -15h-92
q-19 35 -40 38v165q29 20 29 30q0 23 11 23zM1123 298h40q12 -3 12 -15v-203h46v203q1 15 11 15h40q11 -3 11 -15v-226q0 -15 -11 -15h-120q-20 35 -40 38v203q2 15 11 15zM1804 298h92q15 -38 23 -38q17 0 17 -15v-83q0 -15 -11 -15h-98v-67h69q11 -3 11 -15v-8
q0 -15 -11 -15h-92q-19 35 -40 38v165q29 20 29 30q0 23 11 23zM1993 298h40q12 -3 12 -15v-61h23q0 45 23 45q0 31 11 31h40q12 -3 12 -15v-53q0 -15 -12 -15h-74q0 -30 -23 -30v-128q0 -15 -12 -15h-40q-11 0 -11 15v226q2 15 11 15zM2463 298h91q15 -38 23 -38
q17 0 17 -15v-83q0 -15 -11 -15h-97v-67h68q12 -3 12 -15v-8q0 -15 -12 -15h-91q-20 35 -40 38v165q28 20 28 30q0 23 12 23zM2680 298h121q11 -3 11 -15v-16q0 -15 -11 -15h-98v-67h69q20 -35 40 -38v-60q-29 -20 -29 -30q0 -15 -11 -15h-120q-12 0 -12 15v8q2 15 12 15h97
v67h-69q-15 38 -23 38q-17 0 -17 15v45q29 20 29 30q0 23 11 23zM305 252v-172h45v172h-45zM522 252v-172h46v172h-46zM740 252v-172h45v172h-45zM1827 252v-67h46v67h-46zM2486 252v-67h46v67h-46zM2274 117h63q11 -2 11 -15v-45q0 -15 -11 -15h-63q-12 0 -12 15v45
q2 15 12 15z" />
    <glyph glyph-name="afii61352" unicode="&#x2116;" horiz-adv-x="2923" 
d="M98 1440h441l12 -6l-6 -11v-321q0 -11 -11 -11h-327l-6 -29v-166l6 -29l-11 -5h-98q-11 0 -11 11v555q2 12 11 12zM671 1440h326q12 -2 12 -12v-97q0 -11 -12 -11h-103v-338h103q12 -2 12 -12v-97q0 -11 -12 -11h-326q-12 0 -12 11v97q2 12 12 12h103v338h-103
q-12 0 -12 11v97q2 12 12 12zM1129 1440h97q12 -2 12 -12v-103h103q11 -1 11 -11v-103h109v103q2 11 11 11h103v103q2 12 12 12h97q12 -2 12 -12v-97q0 -11 -12 -11h-103v-103q0 -12 -11 -12h-103v-109h103q11 -1 11 -11v-103h103q12 -2 12 -12v-97q0 -11 -12 -11h-97
q-12 0 -12 11v103h-103q-11 0 -11 12v103h-109v-103q0 -12 -11 -12h-103v-103q0 -11 -12 -11h-97q-12 0 -12 11v97q2 12 12 12h103v103q2 11 11 11h103v109h-103q-11 0 -11 12v103h-103q-12 0 -12 11v97q2 12 12 12zM1816 1440h441q11 -2 11 -12v-97q0 -11 -11 -11h-332
v-109h217q12 -2 12 -12v-97q0 -11 -12 -11h-217v-109h332q11 -2 11 -12v-97q0 -11 -11 -11h-441q-12 0 -12 11v555q2 12 12 12zM2388 1440h98q11 -2 11 -12v-446h223v103q2 11 12 11h97q12 -1 12 -11v-212q0 -11 -12 -11h-441q-11 0 -11 11v555q2 12 11 12zM213 1314l-6 -29
v-11l6 -57h212v97h-212zM121 726h23q12 -2 12 -15v-30q0 -15 -12 -15h-23q-11 0 -11 15v30q2 15 11 15zM1799 726h23q11 -2 11 -15v-30q0 -15 -11 -15h-23q-12 0 -12 15v30q2 15 12 15zM2469 726h22q12 -2 12 -15v-30q0 -15 -12 -15h-22q-12 0 -12 15v30q2 15 12 15z
M1919 696h69q11 -2 11 -15v-203h29q11 -2 11 -15q0 -15 -11 -15h-109q-12 0 -12 15q2 15 12 15h34v188h-34q-12 0 -12 15q2 15 12 15zM2280 696h23q11 -2 11 -15v-38h51q12 -2 12 -15q0 -15 -12 -15h-51v-135h51q12 -2 12 -15q0 -15 -12 -15h-62l-35 37v128q-23 0 -23 15
t23 15v38q2 15 12 15zM76 643h68q12 -2 12 -15v-150h28q12 -2 12 -15q0 -15 -12 -15h-108q-12 0 -12 15q2 15 12 15h34v135h-34q-12 0 -12 15q2 15 12 15zM333 643q22 -37 34 -37v-8q0 -15 -11 -15h-23q-11 0 -11 30h-40v-135h40q0 30 11 30h23q11 -2 11 -15v-8l-34 -37h-63
l-34 37v113q28 29 28 45h69zM499 643q22 -37 35 -37v-121l-35 -37h-63l-34 37v113q28 29 28 45h69zM579 643h86q22 -37 35 -37v-143q0 -15 -12 -15h-23q-11 0 -11 15v150h-40v-150q0 -15 -12 -15h-23q-11 0 -11 15v165q2 15 11 15zM854 643q12 -2 12 -15q0 -15 -12 -15h-74
v-52h51q22 -38 35 -38v-38l-35 -37h-86q-11 0 -11 15q2 15 11 15h75v53h-52l-34 37v30q29 29 29 45h91zM1169 643q22 -37 34 -37v-8q0 -15 -11 -15h-23q-11 0 -11 30h-41v-135h41q0 30 11 30h23q11 -2 11 -15v-8l-34 -37h-63l-34 37v113q28 29 28 45h69zM1335 643
q22 -37 34 -37v-121l-34 -37h-63l-34 37v113q28 29 28 45h69zM1415 643h109q22 -37 34 -37v-143q0 -15 -11 -15h-23q-12 0 -12 15v150h-17v-128q0 -15 -11 -15h-6q-11 0 -11 15v128h-17v-150q0 -15 -12 -15h-23q-11 0 -11 15v165q1 15 11 15zM1587 643h86q22 -37 34 -37
v-121l-34 -37h-40v-150h74q12 -3 12 -15v-16q0 -15 -12 -15h-74v-172h74q12 -3 12 -15v-8q0 -15 -12 -15h-91q-20 35 -41 38v172q-28 0 -28 15v16q0 15 28 15v330q2 15 12 15zM1753 643h69q11 -2 11 -15v-150h29q11 -2 11 -15q0 -15 -11 -15h-109q-12 0 -12 15q2 15 12 15
h34v135h-34q-12 0 -12 15q2 15 12 15zM2108 643h63q22 -37 34 -37v-143q0 -15 -11 -15h-86l-34 37v31q28 29 28 45h57v52h-51q-12 0 -12 15q2 15 12 15zM2423 643h68q12 -2 12 -15v-150h29q11 -2 11 -15q0 -15 -11 -15h-109q-12 0 -12 15q2 15 12 15h34v135h-34
q-12 0 -12 15q2 15 12 15zM2675 643q22 -37 34 -37v-121l-34 -37h-63l-35 37v113q29 29 29 45h69zM2755 643h86q22 -37 34 -37v-143q0 -15 -11 -15h-23q-12 0 -12 15v150h-40v-150q0 -15 -11 -15h-23q-12 0 -12 15v165q2 15 12 15zM448 613v-135h40v135h-40zM1283 613v-135
h41v135h-41zM1621 613v-135h40v135h-40zM2623 613v-135h40v135h-40zM2119 531v-53h40v53h-40zM797 365h40q11 -2 11 -15v-293q0 -15 -11 -15h-120q-20 35 -40 38v165q28 20 28 30q0 23 12 23h68v52q2 15 12 15zM1369 365h35q11 -2 11 -15v-52h75q11 -3 11 -15v-16
q0 -15 -11 -15h-75v-172h75q11 -3 11 -15v-8q0 -15 -11 -15h-92q-20 35 -40 38v172q-29 0 -29 15v16q0 15 29 15v52q2 15 11 15zM35 298h41q11 -3 11 -15v-166h23v128q2 15 11 15h6q11 -2 11 -15v-128h23v166q2 15 12 15h34q12 -3 12 -15v-158q0 -15 -23 -15v-53
q0 -15 -12 -15h-40q-11 0 -11 15v53h-23v-53q0 -15 -12 -15h-34q-11 0 -11 15v53q-29 0 -29 15v158q2 15 11 15zM282 298h91q15 -38 23 -38q17 0 17 -15v-158q-28 -20 -28 -30q0 -15 -12 -15h-91q-20 35 -40 38v165q28 20 28 30q0 23 12 23zM499 298h92q15 -38 23 -38
q17 0 17 -15v-158q-29 -20 -29 -30q0 -15 -11 -15h-92q-19 35 -40 38v165q29 20 29 30q0 23 11 23zM934 298h92q15 -38 23 -38q17 0 17 -15v-15q0 -15 -12 -15h-40q-11 0 -11 37h-46v-172h46q0 37 11 37h40q12 -2 12 -15v-15q-29 -20 -29 -30q0 -15 -11 -15h-92
q-19 35 -40 38v165q29 20 29 30q0 23 11 23zM1123 298h40q12 -3 12 -15v-203h46v203q1 15 11 15h40q11 -3 11 -15v-226q0 -15 -11 -15h-120q-20 35 -40 38v203q2 15 11 15zM1804 298h92q15 -38 23 -38q17 0 17 -15v-83q0 -15 -11 -15h-98v-67h69q11 -3 11 -15v-8
q0 -15 -11 -15h-92q-19 35 -40 38v165q29 20 29 30q0 23 11 23zM1993 298h40q12 -3 12 -15v-61h23q0 45 23 45q0 31 11 31h40q12 -3 12 -15v-53q0 -15 -12 -15h-74q0 -30 -23 -30v-128q0 -15 -12 -15h-40q-11 0 -11 15v226q2 15 11 15zM2463 298h91q15 -38 23 -38
q17 0 17 -15v-83q0 -15 -11 -15h-97v-67h68q12 -3 12 -15v-8q0 -15 -12 -15h-91q-20 35 -40 38v165q28 20 28 30q0 23 12 23zM2680 298h121q11 -3 11 -15v-16q0 -15 -11 -15h-98v-67h69q20 -35 40 -38v-60q-29 -20 -29 -30q0 -15 -11 -15h-120q-12 0 -12 15v8q2 15 12 15h97
v67h-69q-15 38 -23 38q-17 0 -17 15v45q29 20 29 30q0 23 11 23zM305 252v-172h45v172h-45zM522 252v-172h46v172h-46zM740 252v-172h45v172h-45zM1827 252v-67h46v67h-46zM2486 252v-67h46v67h-46zM2274 117h63q11 -2 11 -15v-45q0 -15 -11 -15h-63q-12 0 -12 15v45
q2 15 12 15z" />
    <glyph glyph-name="trademark" unicode="&#x2122;" horiz-adv-x="2923" 
d="M98 1440h441l12 -6l-6 -11v-321q0 -11 -11 -11h-327l-6 -29v-166l6 -29l-11 -5h-98q-11 0 -11 11v555q2 12 11 12zM671 1440h326q12 -2 12 -12v-97q0 -11 -12 -11h-103v-338h103q12 -2 12 -12v-97q0 -11 -12 -11h-326q-12 0 -12 11v97q2 12 12 12h103v338h-103
q-12 0 -12 11v97q2 12 12 12zM1129 1440h97q12 -2 12 -12v-103h103q11 -1 11 -11v-103h109v103q2 11 11 11h103v103q2 12 12 12h97q12 -2 12 -12v-97q0 -11 -12 -11h-103v-103q0 -12 -11 -12h-103v-109h103q11 -1 11 -11v-103h103q12 -2 12 -12v-97q0 -11 -12 -11h-97
q-12 0 -12 11v103h-103q-11 0 -11 12v103h-109v-103q0 -12 -11 -12h-103v-103q0 -11 -12 -11h-97q-12 0 -12 11v97q2 12 12 12h103v103q2 11 11 11h103v109h-103q-11 0 -11 12v103h-103q-12 0 -12 11v97q2 12 12 12zM1816 1440h441q11 -2 11 -12v-97q0 -11 -11 -11h-332
v-109h217q12 -2 12 -12v-97q0 -11 -12 -11h-217v-109h332q11 -2 11 -12v-97q0 -11 -11 -11h-441q-12 0 -12 11v555q2 12 12 12zM2388 1440h98q11 -2 11 -12v-446h223v103q2 11 12 11h97q12 -1 12 -11v-212q0 -11 -12 -11h-441q-11 0 -11 11v555q2 12 11 12zM213 1314l-6 -29
v-11l6 -57h212v97h-212zM121 726h23q12 -2 12 -15v-30q0 -15 -12 -15h-23q-11 0 -11 15v30q2 15 11 15zM1799 726h23q11 -2 11 -15v-30q0 -15 -11 -15h-23q-12 0 -12 15v30q2 15 12 15zM2469 726h22q12 -2 12 -15v-30q0 -15 -12 -15h-22q-12 0 -12 15v30q2 15 12 15z
M1919 696h69q11 -2 11 -15v-203h29q11 -2 11 -15q0 -15 -11 -15h-109q-12 0 -12 15q2 15 12 15h34v188h-34q-12 0 -12 15q2 15 12 15zM2280 696h23q11 -2 11 -15v-38h51q12 -2 12 -15q0 -15 -12 -15h-51v-135h51q12 -2 12 -15q0 -15 -12 -15h-62l-35 37v128q-23 0 -23 15
t23 15v38q2 15 12 15zM76 643h68q12 -2 12 -15v-150h28q12 -2 12 -15q0 -15 -12 -15h-108q-12 0 -12 15q2 15 12 15h34v135h-34q-12 0 -12 15q2 15 12 15zM333 643q22 -37 34 -37v-8q0 -15 -11 -15h-23q-11 0 -11 30h-40v-135h40q0 30 11 30h23q11 -2 11 -15v-8l-34 -37h-63
l-34 37v113q28 29 28 45h69zM499 643q22 -37 35 -37v-121l-35 -37h-63l-34 37v113q28 29 28 45h69zM579 643h86q22 -37 35 -37v-143q0 -15 -12 -15h-23q-11 0 -11 15v150h-40v-150q0 -15 -12 -15h-23q-11 0 -11 15v165q2 15 11 15zM854 643q12 -2 12 -15q0 -15 -12 -15h-74
v-52h51q22 -38 35 -38v-38l-35 -37h-86q-11 0 -11 15q2 15 11 15h75v53h-52l-34 37v30q29 29 29 45h91zM1169 643q22 -37 34 -37v-8q0 -15 -11 -15h-23q-11 0 -11 30h-41v-135h41q0 30 11 30h23q11 -2 11 -15v-8l-34 -37h-63l-34 37v113q28 29 28 45h69zM1335 643
q22 -37 34 -37v-121l-34 -37h-63l-34 37v113q28 29 28 45h69zM1415 643h109q22 -37 34 -37v-143q0 -15 -11 -15h-23q-12 0 -12 15v150h-17v-128q0 -15 -11 -15h-6q-11 0 -11 15v128h-17v-150q0 -15 -12 -15h-23q-11 0 -11 15v165q1 15 11 15zM1587 643h86q22 -37 34 -37
v-121l-34 -37h-40v-150h74q12 -3 12 -15v-16q0 -15 -12 -15h-74v-172h74q12 -3 12 -15v-8q0 -15 -12 -15h-91q-20 35 -41 38v172q-28 0 -28 15v16q0 15 28 15v330q2 15 12 15zM1753 643h69q11 -2 11 -15v-150h29q11 -2 11 -15q0 -15 -11 -15h-109q-12 0 -12 15q2 15 12 15
h34v135h-34q-12 0 -12 15q2 15 12 15zM2108 643h63q22 -37 34 -37v-143q0 -15 -11 -15h-86l-34 37v31q28 29 28 45h57v52h-51q-12 0 -12 15q2 15 12 15zM2423 643h68q12 -2 12 -15v-150h29q11 -2 11 -15q0 -15 -11 -15h-109q-12 0 -12 15q2 15 12 15h34v135h-34
q-12 0 -12 15q2 15 12 15zM2675 643q22 -37 34 -37v-121l-34 -37h-63l-35 37v113q29 29 29 45h69zM2755 643h86q22 -37 34 -37v-143q0 -15 -11 -15h-23q-12 0 -12 15v150h-40v-150q0 -15 -11 -15h-23q-12 0 -12 15v165q2 15 12 15zM448 613v-135h40v135h-40zM1283 613v-135
h41v135h-41zM1621 613v-135h40v135h-40zM2623 613v-135h40v135h-40zM2119 531v-53h40v53h-40zM797 365h40q11 -2 11 -15v-293q0 -15 -11 -15h-120q-20 35 -40 38v165q28 20 28 30q0 23 12 23h68v52q2 15 12 15zM1369 365h35q11 -2 11 -15v-52h75q11 -3 11 -15v-16
q0 -15 -11 -15h-75v-172h75q11 -3 11 -15v-8q0 -15 -11 -15h-92q-20 35 -40 38v172q-29 0 -29 15v16q0 15 29 15v52q2 15 11 15zM35 298h41q11 -3 11 -15v-166h23v128q2 15 11 15h6q11 -2 11 -15v-128h23v166q2 15 12 15h34q12 -3 12 -15v-158q0 -15 -23 -15v-53
q0 -15 -12 -15h-40q-11 0 -11 15v53h-23v-53q0 -15 -12 -15h-34q-11 0 -11 15v53q-29 0 -29 15v158q2 15 11 15zM282 298h91q15 -38 23 -38q17 0 17 -15v-158q-28 -20 -28 -30q0 -15 -12 -15h-91q-20 35 -40 38v165q28 20 28 30q0 23 12 23zM499 298h92q15 -38 23 -38
q17 0 17 -15v-158q-29 -20 -29 -30q0 -15 -11 -15h-92q-19 35 -40 38v165q29 20 29 30q0 23 11 23zM934 298h92q15 -38 23 -38q17 0 17 -15v-15q0 -15 -12 -15h-40q-11 0 -11 37h-46v-172h46q0 37 11 37h40q12 -2 12 -15v-15q-29 -20 -29 -30q0 -15 -11 -15h-92
q-19 35 -40 38v165q29 20 29 30q0 23 11 23zM1123 298h40q12 -3 12 -15v-203h46v203q1 15 11 15h40q11 -3 11 -15v-226q0 -15 -11 -15h-120q-20 35 -40 38v203q2 15 11 15zM1804 298h92q15 -38 23 -38q17 0 17 -15v-83q0 -15 -11 -15h-98v-67h69q11 -3 11 -15v-8
q0 -15 -11 -15h-92q-19 35 -40 38v165q29 20 29 30q0 23 11 23zM1993 298h40q12 -3 12 -15v-61h23q0 45 23 45q0 31 11 31h40q12 -3 12 -15v-53q0 -15 -12 -15h-74q0 -30 -23 -30v-128q0 -15 -12 -15h-40q-11 0 -11 15v226q2 15 11 15zM2463 298h91q15 -38 23 -38
q17 0 17 -15v-83q0 -15 -11 -15h-97v-67h68q12 -3 12 -15v-8q0 -15 -12 -15h-91q-20 35 -40 38v165q28 20 28 30q0 23 12 23zM2680 298h121q11 -3 11 -15v-16q0 -15 -11 -15h-98v-67h69q20 -35 40 -38v-60q-29 -20 -29 -30q0 -15 -11 -15h-120q-12 0 -12 15v8q2 15 12 15h97
v67h-69q-15 38 -23 38q-17 0 -17 15v45q29 20 29 30q0 23 11 23zM305 252v-172h45v172h-45zM522 252v-172h46v172h-46zM740 252v-172h45v172h-45zM1827 252v-67h46v67h-46zM2486 252v-67h46v67h-46zM2274 117h63q11 -2 11 -15v-45q0 -15 -11 -15h-63q-12 0 -12 15v45
q2 15 12 15z" />
    <glyph glyph-name="partialdiff" unicode="&#x2202;" 
 />
    <glyph glyph-name="Delta" unicode="&#x2206;" horiz-adv-x="1081" 
 />
    <glyph glyph-name="product" unicode="&#x220f;" horiz-adv-x="1515" 
 />
    <glyph glyph-name="summation" unicode="&#x2211;" horiz-adv-x="1206" 
 />
    <glyph glyph-name="minus" unicode="&#x2212;" 
 />
    <glyph glyph-name="radical" unicode="&#x221a;" 
 />
    <glyph glyph-name="infinity" unicode="&#x221e;" 
 />
    <glyph glyph-name="integral" unicode="&#x222b;" horiz-adv-x="665" 
 />
    <glyph glyph-name="approxequal" unicode="&#x2248;" 
 />
    <glyph glyph-name="lessequal" unicode="&#x2264;" 
 />
    <glyph glyph-name="greaterequal" unicode="&#x2265;" 
 />
    <glyph glyph-name="uniF001" unicode="&#xf001;" horiz-adv-x="1073" 
 />
    <glyph glyph-name="uniF001" unicode="&#xfb01;" horiz-adv-x="1073" 
 />
    <glyph glyph-name="uniF002" unicode="&#xf002;" horiz-adv-x="1081" 
 />
    <glyph glyph-name="uniF002" unicode="&#xfb02;" horiz-adv-x="1081" 
 />
  </font>
</defs>
</svg>
